<svg id="icons" xmlns="http://www.w3.org/2000/svg" version="1.1" viewBox="0 0 135 108"><defs><style>.cls-1{fill:#36c}.cls-1,.cls-2,.cls-3{stroke-width:0}.cls-2{fill-rule:evenodd}.cls-2,.cls-3{fill:#fff}</style></defs><path class="cls-3" d="M134.6 40.1l-7.1-13.5c-1.2-2.2-4-2.2-5.1 0l-7.1 13.5c-1.2 2.2.3 4.9 2.5 4.9h13.9c2.7 0 4-2.6 2.9-4.9zm-9.6 3.5c-.8 0-1.5-.7-1.5-1.7s.7-1.7 1.5-1.7 1.5.7 1.5 1.7-.6 1.7-1.5 1.7zm1.3-5.8c0 .7-.7 1.2-1.3 1.2s-1.2-.6-1.3-1.2l-.7-7.9c0-.8.5-1.5 1.3-1.5h1.3c.8 0 1.3.7 1.3 1.5l-.6 7.9zM60.4 95.3c-.5 0-1-.2-1.4-.6-.8-.8-.8-2 0-2.8l8.9-8.9c1.2-1.2 3.1-1.2 4.3 0l8.9 8.9c.8.8.8 2 0 2.8s-2 .8-2.8 0l-8.2-8.2-8.2 8.2c-.4.4-.9.6-1.5.6zM13.9 77H11v-2.9c0-.6-.5-1-1-1s-1 .5-1 1V77H6.1c-.6 0-1 .5-1 1s.5 1 1 1H9v2.9c0 .6.5 1 1 1s1-.5 1-1V79h2.9c.6 0 1-.5 1-1s-.5-1-1-1zM38.9 77H31c-.6 0-1 .5-1 1s.5 1 1 1h7.9c.6 0 1-.5 1-1s-.5-1-1-1z"/><path d="M132.2 1h-14.4c-1 0-1.8.8-1.8 1.8v14.4c0 1 .8 1.8 1.8 1.8h14.4c1 0 1.8-.8 1.8-1.8V2.8c0-1-.8-1.8-1.8-1.8z" fill="#030304" stroke-width="0"/><path class="cls-3" d="M133 0h-16c-1.1 0-2 .9-2 2v16c0 1.1.9 2 2 2h16c1.1 0 2-.9 2-2V2c0-1.1-.9-2-2-2zm-2.2 13.5c-1.2 2-3.3 3.3-5.9 3.3-3.8 0-6.8-3.1-6.8-6.8s3.2-6.9 6.9-6.8c2.5 0 4.6 1.3 5.7 3.3 0 0 0 .2-.1.2l-1.6.9h-.2c-.9-1.4-2.3-2.2-4-2.2-2.6 0-4.7 2.2-4.7 4.8s2.2 4.7 4.7 4.7 3.2-.9 4-2.2c0-.1.1-.1.2-.1l1.6.9c.2 0 .3.1.2.1zm.9-2.6c0 .1-.1.1-.2.1h-9.1s0-.1-.2-.1V9.1q0-.1.2-.1h9.1c.1 0 .1.1.2.1.1.3.1.6.1.9s0 .6-.1.9zM70.9 53.2h2.8v1.4h-2.8z"/><path class="cls-2" d="M76.5 38.5v2.1h-4.8V42h4.8v2.8h-1.9v1.4h1.9V49h-3.3v1.4h3.3v2.8h-1.4v1.4h1.4v2.1H99V38.5H76.5zm20.2 1.4L87.8 49l-8.9-9.2h17.8zm1 15.5H77.9V40.9L87.8 51l9.9-10.1v14.5zM55.4 38v-1.2h-1.2V38h-8.4v-1.2h-1.2V38h-5.4v20.5h21.7V38h-5.5zm4.2 19.3H40.4V44h19.3v13.3zM40.4 42.8v-3.6h4.2v1.2h1.2v-1.2h8.4v1.2h1.2v-1.2h4.2v3.6H40.4z"/><path class="cls-2" d="M43.1 47.6h1.8c.2 0 .3 0 .3-.3v-1.8c0-.2 0-.3-.3-.3h-1.8c-.2 0-.3 0-.3.3v1.8c0 .2 0 .3.3.3zM49.1 47.6h1.8c.2 0 .3 0 .3-.3v-1.8c0-.2 0-.3-.3-.3h-1.8c-.2 0-.3 0-.3.3v1.8c0 .2 0 .3.3.3zM55.1 47.6h1.8c.2 0 .3 0 .3-.3v-1.8c0-.2 0-.3-.3-.3h-1.8c-.2 0-.3 0-.3.3v1.8c0 .2 0 .3.3.3zM43.1 51.8h1.8c.2 0 .3 0 .3-.3v-1.8c0-.2 0-.3-.3-.3h-1.8c-.2 0-.3 0-.3.3v1.8c0 .2 0 .3.3.3zM49.1 51.8h1.8c.2 0 .3 0 .3-.3v-1.8c0-.2 0-.3-.3-.3h-1.8c-.2 0-.3 0-.3.3v1.8c0 .2 0 .3.3.3zM55.1 51.8h1.8c.2 0 .3 0 .3-.3v-1.8c0-.2 0-.3-.3-.3h-1.8c-.2 0-.3 0-.3.3v1.8c0 .2 0 .3.3.3zM43.1 56h1.8c.2 0 .3 0 .3-.3v-1.8c0-.2 0-.3-.3-.3h-1.8c-.2 0-.3 0-.3.3v1.8c0 .2 0 .3.3.3zM49.1 56h1.8c.2 0 .3 0 .3-.3v-1.8c0-.2 0-.3-.3-.3h-1.8c-.2 0-.3 0-.3.3v1.8c0 .2 0 .3.3.3zM55.1 56h1.8c.2 0 .3 0 .3-.3v-1.8c0-.2 0-.3-.3-.3h-1.8c-.2 0-.3 0-.3.3v1.8c0 .2 0 .3.3.3z"/><g><path class="cls-3" d="M6.1 58.3h-.4c-.3 0-.9 0-1.2-.6-.4-.4-.6-1.1-.4-1.8L5.3 52c-.9-1.6-1.5-3.4-1.5-5.4v-.4c0-6.2 5.1-11 11.4-11s11.4 4.9 11.5 11.1v.4c0 6.3-5.1 11.4-11.4 11.4s-3.5-.3-5-1.1l-4.1 1.2h-.1zm9.1-21.9c-5.6 0-10.1 4.3-10.2 9.8v.4c0 1.9.4 3.6 1.3 5v.2L5 56.2v.6c.2 0 .4.2.6.2h.2l4.5-1.3h.2c1.5.9 2.9 1.2 4.7 1.2 5.6 0 10.2-4.6 10.2-10.2v-.4c-.1-5.6-4.7-10-10.3-10z"/><path class="cls-3" d="M21.3 51.1c-.2.7-1.5 1.3-2 1.3-.4 0-.4.4-3.6-.8-3.1-1.1-5-4.3-5.1-4.5-.1 0-.8-1-1-2-.2-.2-.2-.6-.2-.9 0-1.5.8-2.1 1-2.6.3-.3.7-.4.8-.4h.6c.1 0 .4 0 .7.4.2.6.8 2 .9 2.1.1 0 .1.3 0 .4-.1 0-.1.2-.1.3s-.1 0-.1 0c-.1 0-.3.3-.4.4-.1 0-.3.2-.1.6.1.2.8 1.2 1.7 2 1.1 1 2.1 1.3 2.5 1.5s.4 0 .7 0 .8-.8 1-1.1c.1-.3.4-.2.7 0 .2 0 1.7.8 2 1 .2 0 .4.2.7.6-.1.3-.1.9-.3 1.7h-.4z"/></g><g><path class="cls-3" d="M44.2 22c-3 0-5-1.2-5-5.1V8.8h-2V4.7h2V.3H44v4.4h4v4.1h-4v7.3c0 1.1.5 1.7 1.6 1.7H48v4.3h-3.8z"/><path class="cls-1" d="M49.2 17.8h4.4v4.3h-4.4z"/><path class="cls-3" d="M29.4 22.1c-2.6 0-4.2-1.2-5.3-2.5v7.3h-4.8V4.7h4.8v2.5c1.2-1.6 2.8-2.8 5.3-2.8 4 0 7.8 3.1 7.8 8.8 0 5.8-3.7 8.9-7.8 8.9zm2.9-8.9c0-2.8-1.9-4.7-4.2-4.7S24 10.4 24 13.2c0 2.9 1.9 4.8 4.1 4.8s4.2-1.8 4.2-4.7zM76.1 22v-9.8c0-2.3-1-3.5-2.8-3.5s-2.9 1.2-2.9 3.5V22h-4.8v-9.8c0-2.3-1-3.5-2.8-3.5s-2.9 1.2-2.9 3.5V22h-4.8V4.7h4.8v2.4c1.1-1.4 2.6-2.7 5-2.7s3.9 1 4.8 2.7c1.5-1.8 3.3-2.7 5.6-2.7 3.6 0 5.8 2.2 5.8 6.3v11.4h-4.8zM98.8 14.9H86.9c.5 2.2 2 3.3 4.2 3.3s2.8-.5 4.1-1.8l2.8 2.5c-1.6 2-3.9 3.2-7 3.2-5.1 0-8.9-3.6-8.9-8.8 0-4.9 3.5-8.9 8.4-8.9s8.3 4.4 8.3 9.3V15zm-8.2-6.7c-2 0-3.3 1.4-3.7 3.6h7.3c-.3-2.2-1.6-3.6-3.6-3.6z"/><rect class="cls-1" x="7.3" y="2.5" width="3.4" height="10.7" rx="1.5" ry="1.5"/><path class="cls-3" d="M11.7 4.8v4.6c1.2.9 2 2.3 2 4 0 2.4-2.1 4.5-4.5 4.6s-5-2-5-4.7.8-3 2-3.8V4.9C2.5 6-.2 9.6.1 13.8c.3 4.4 3.9 8 8.2 8.2s9.5-3.7 9.5-8.8-2.6-7.3-6.1-8.4z"/></g></svg>