<svg xmlns="http://www.w3.org/2000/svg" xmlns:xlink="http://www.w3.org/1999/xlink" width="500" zoomAndPan="magnify" viewBox="0 0 375 374.999991" height="500" preserveAspectRatio="xMidYMid meet" version="1.0"><defs><clipPath id="a906e9572b"><path d="M 0 1.09375 L 375 1.09375 L 375 375 L 0 375 Z M 0 1.09375 " clip-rule="nonzero"/></clipPath><clipPath id="3bab6002dc"><path d="M 30 1.09375 L 346.101562 1.09375 C 362.667969 1.09375 376.101562 14.523438 376.101562 31.09375 L 376.101562 345 C 376.101562 361.570312 362.667969 375 346.101562 375 L 30 375 C 13.429688 375 0 361.570312 0 345 L 0 31.09375 C 0 14.523438 13.429688 1.09375 30 1.09375 Z M 30 1.09375 " clip-rule="nonzero"/></clipPath><clipPath id="587f098a8d"><path d="M 36.183594 62.65625 L 329.433594 62.65625 L 329.433594 310.90625 L 36.183594 310.90625 Z M 36.183594 62.65625 " clip-rule="nonzero"/></clipPath></defs><g clip-path="url(#a906e9572b)"><g clip-path="url(#3bab6002dc)"><path fill="#d9d9d9" d="M 0 1.09375 L 376.828125 1.09375 L 376.828125 375 L 0 375 Z M 0 1.09375 " fill-opacity="1" fill-rule="nonzero"/></g></g><g clip-path="url(#587f098a8d)"><path fill="#2a2a2a" d="M 209.398438 137.921875 L 36.226562 311.09375 L 36.226562 235.964844 L 209.398438 62.65625 Z M 156.113281 235.695312 L 156.113281 311.09375 L 276 191.34375 L 276 311.09375 L 329.285156 257.808594 L 329.285156 62.65625 Z M 156.113281 235.695312 " fill-opacity="1" fill-rule="nonzero"/></g></svg>