<svg xmlns="http://www.w3.org/2000/svg" xmlns:xlink="http://www.w3.org/1999/xlink" width="1000" zoomAndPan="magnify" viewBox="0 0 750 599.999999" height="800" preserveAspectRatio="xMidYMid meet" version="1.0"><defs><g/><clipPath id="6923fa5599"><path d="M 0 12.242188 L 120.917969 12.242188 L 120.917969 132.222656 L 0 132.222656 Z M 0 12.242188 " clip-rule="nonzero"/></clipPath><clipPath id="302a29c993"><path d="M 6.75 12.242188 L 113.933594 12.242188 C 117.660156 12.242188 120.683594 15.265625 120.683594 18.992188 L 120.683594 125.472656 C 120.683594 129.199219 117.660156 132.222656 113.933594 132.222656 L 6.75 132.222656 C 3.023438 132.222656 0 129.199219 0 125.472656 L 0 18.992188 C 0 15.265625 3.023438 12.242188 6.75 12.242188 Z M 6.75 12.242188 " clip-rule="nonzero"/></clipPath><clipPath id="6053063998"><path d="M 11.609375 31.996094 L 105.632812 31.996094 L 105.632812 111.554688 L 11.609375 111.554688 Z M 11.609375 31.996094 " clip-rule="nonzero"/></clipPath><clipPath id="32ecae455c"><path d="M 636.621094 0 L 750 0 L 750 112.71875 L 636.621094 112.71875 Z M 636.621094 0 " clip-rule="nonzero"/></clipPath><clipPath id="d84c4096ef"><path d="M 643.371094 0 L 743.25 0 C 746.976562 0 750 3.023438 750 6.75 L 750 105.96875 C 750 109.695312 746.976562 112.71875 743.25 112.71875 L 643.371094 112.71875 C 639.640625 112.71875 636.621094 109.695312 636.621094 105.96875 L 636.621094 6.75 C 636.621094 3.023438 639.640625 0 643.371094 0 Z M 643.371094 0 " clip-rule="nonzero"/></clipPath><clipPath id="e9b35b04e9"><path d="M 647.527344 18.558594 L 735.859375 18.558594 L 735.859375 93.300781 L 647.527344 93.300781 Z M 647.527344 18.558594 " clip-rule="nonzero"/></clipPath><clipPath id="12d3d3c66f"><path d="M 18.414062 195.011719 L 148.164062 195.011719 L 148.164062 324 L 18.414062 324 Z M 18.414062 195.011719 " clip-rule="nonzero"/></clipPath><clipPath id="a3618694fa"><path d="M 220.300781 202.542969 L 337.300781 202.542969 L 337.300781 324.792969 L 220.300781 324.792969 Z M 220.300781 202.542969 " clip-rule="nonzero"/></clipPath><clipPath id="c57c6c87bf"><path d="M 419.40625 214.34375 L 547 214.34375 L 547 313 L 419.40625 313 Z M 419.40625 214.34375 " clip-rule="nonzero"/></clipPath><clipPath id="2b4dd833cb"><path d="M 637 146.898438 L 749.871094 146.898438 L 749.871094 247.398438 L 637 247.398438 Z M 637 146.898438 " clip-rule="nonzero"/></clipPath><clipPath id="cf96ceb771"><path d="M 27.292969 406.167969 L 83.542969 406.167969 L 83.542969 462 L 27.292969 462 Z M 27.292969 406.167969 " clip-rule="nonzero"/></clipPath><clipPath id="1471fdfbd6"><path d="M 167.386719 428.046875 L 220.636719 428.046875 L 220.636719 440.046875 L 167.386719 440.046875 Z M 167.386719 428.046875 " clip-rule="nonzero"/></clipPath><clipPath id="9cae28b94b"><path d="M 331.855469 458.050781 L 447.355469 458.050781 L 447.355469 530 L 331.855469 530 Z M 331.855469 458.050781 " clip-rule="nonzero"/></clipPath></defs><g clip-path="url(#6923fa5599)"><g clip-path="url(#302a29c993)"><path fill="#ffffff" d="M 0 12.242188 L 120.917969 12.242188 L 120.917969 132.222656 L 0 132.222656 Z M 0 12.242188 " fill-opacity="1" fill-rule="nonzero"/></g></g><g clip-path="url(#6053063998)"><path fill="#000000" d="M 67.167969 56.097656 L 11.628906 111.554688 L 11.628906 87.496094 L 67.167969 31.996094 Z M 50.078125 87.410156 L 50.078125 111.554688 L 88.527344 73.207031 L 88.527344 111.554688 L 105.617188 94.492188 L 105.617188 31.996094 Z M 50.078125 87.410156 " fill-opacity="1" fill-rule="nonzero"/></g><g fill="#ffffff" fill-opacity="1"><g transform="translate(136.236496, 100.43936)"><g><path d="M 5.765625 0 L 5.765625 -45.328125 L 16.15625 -45.328125 L 16.15625 0 Z M 35.890625 0 L 35.890625 -27.015625 C 35.890625 -30.035156 34.941406 -32.378906 33.046875 -34.046875 C 31.160156 -35.710938 28.832031 -36.546875 26.0625 -36.546875 C 24.175781 -36.546875 22.492188 -36.164062 21.015625 -35.40625 C 19.535156 -34.65625 18.351562 -33.570312 17.46875 -32.15625 C 16.59375 -30.738281 16.15625 -29.023438 16.15625 -27.015625 L 12.09375 -29.28125 C 12.09375 -32.738281 12.847656 -35.726562 14.359375 -38.25 C 15.867188 -40.769531 17.910156 -42.738281 20.484375 -44.15625 C 23.066406 -45.570312 25.96875 -46.28125 29.1875 -46.28125 C 32.394531 -46.28125 35.285156 -45.585938 37.859375 -44.203125 C 40.441406 -42.816406 42.488281 -40.863281 44 -38.34375 C 45.519531 -35.820312 46.28125 -32.800781 46.28125 -29.28125 L 46.28125 0 Z M 66.015625 0 L 66.015625 -27.015625 C 66.015625 -30.035156 65.066406 -32.378906 63.171875 -34.046875 C 61.285156 -35.710938 58.957031 -36.546875 56.1875 -36.546875 C 54.363281 -36.546875 52.695312 -36.164062 51.1875 -35.40625 C 49.675781 -34.65625 48.476562 -33.570312 47.59375 -32.15625 C 46.71875 -30.738281 46.28125 -29.023438 46.28125 -27.015625 L 40.421875 -29.28125 C 40.734375 -32.738281 41.738281 -35.726562 43.4375 -38.25 C 45.132812 -40.769531 47.320312 -42.738281 50 -44.15625 C 52.675781 -45.570312 55.617188 -46.28125 58.828125 -46.28125 C 62.109375 -46.28125 65.066406 -45.585938 67.703125 -44.203125 C 70.347656 -42.816406 72.457031 -40.863281 74.03125 -38.34375 C 75.613281 -35.820312 76.40625 -32.800781 76.40625 -29.28125 L 76.40625 0 Z M 66.015625 0 "/></g></g></g><g fill="#ffffff" fill-opacity="1"><g transform="translate(217.550901, 100.43936)"><g><path d="M 5.859375 0 L 5.859375 -45.328125 L 16.25 -45.328125 L 16.25 0 Z M 11.046875 -53.640625 C 9.285156 -53.640625 7.820312 -54.238281 6.65625 -55.4375 C 5.488281 -56.632812 4.90625 -58.113281 4.90625 -59.875 C 4.90625 -61.632812 5.488281 -63.113281 6.65625 -64.3125 C 7.820312 -65.507812 9.285156 -66.109375 11.046875 -66.109375 C 12.867188 -66.109375 14.347656 -65.507812 15.484375 -64.3125 C 16.617188 -63.113281 17.1875 -61.632812 17.1875 -59.875 C 17.1875 -58.113281 16.617188 -56.632812 15.484375 -55.4375 C 14.347656 -54.238281 12.867188 -53.640625 11.046875 -53.640625 Z M 11.046875 -53.640625 "/></g></g></g><g fill="#ffffff" fill-opacity="1"><g transform="translate(239.650293, 100.43936)"><g><path d="M 36.828125 0 L 36.828125 -26.15625 C 36.828125 -29.175781 35.863281 -31.660156 33.9375 -33.609375 C 32.019531 -35.566406 29.550781 -36.546875 26.53125 -36.546875 C 24.519531 -36.546875 22.726562 -36.101562 21.15625 -35.21875 C 19.582031 -34.34375 18.351562 -33.117188 17.46875 -31.546875 C 16.59375 -29.972656 16.15625 -28.175781 16.15625 -26.15625 L 12.09375 -28.421875 C 12.09375 -31.890625 12.847656 -34.957031 14.359375 -37.625 C 15.867188 -40.300781 17.957031 -42.410156 20.625 -43.953125 C 23.300781 -45.503906 26.3125 -46.28125 29.65625 -46.28125 C 33.050781 -46.28125 36.070312 -45.410156 38.71875 -43.671875 C 41.363281 -41.941406 43.441406 -39.707031 44.953125 -36.96875 C 46.460938 -34.226562 47.21875 -31.378906 47.21875 -28.421875 L 47.21875 0 Z M 5.765625 0 L 5.765625 -45.328125 L 16.15625 -45.328125 L 16.15625 0 Z M 5.765625 0 "/></g></g></g><g fill="#ffffff" fill-opacity="1"><g transform="translate(291.687751, 100.43936)"><g><path d="M 30.03125 0.9375 C 26.570312 0.9375 23.488281 0.195312 20.78125 -1.28125 C 18.070312 -2.757812 15.945312 -4.785156 14.40625 -7.359375 C 12.863281 -9.941406 12.09375 -12.875 12.09375 -16.15625 L 12.09375 -29.1875 C 12.09375 -32.457031 12.878906 -35.378906 14.453125 -37.953125 C 16.023438 -40.535156 18.164062 -42.566406 20.875 -44.046875 C 23.582031 -45.535156 26.632812 -46.28125 30.03125 -46.28125 C 34.125 -46.28125 37.820312 -45.222656 41.125 -43.109375 C 44.425781 -41.003906 47.035156 -38.171875 48.953125 -34.609375 C 50.878906 -31.054688 51.84375 -27.046875 51.84375 -22.578125 C 51.84375 -18.160156 50.878906 -14.171875 48.953125 -10.609375 C 47.035156 -7.054688 44.425781 -4.242188 41.125 -2.171875 C 37.820312 -0.0976562 34.125 0.9375 30.03125 0.9375 Z M 5.765625 0 L 5.765625 -68 L 16.15625 -68 L 16.15625 -34.1875 L 14.359375 -23.234375 L 16.15625 -12.1875 L 16.15625 0 Z M 28.328125 -8.875 C 30.847656 -8.875 33.066406 -9.457031 34.984375 -10.625 C 36.910156 -11.789062 38.421875 -13.410156 39.515625 -15.484375 C 40.617188 -17.566406 41.171875 -19.960938 41.171875 -22.671875 C 41.171875 -25.367188 40.617188 -27.753906 39.515625 -29.828125 C 38.421875 -31.910156 36.910156 -33.535156 34.984375 -34.703125 C 33.066406 -35.867188 30.847656 -36.453125 28.328125 -36.453125 C 25.804688 -36.453125 23.570312 -35.867188 21.625 -34.703125 C 19.675781 -33.535156 18.164062 -31.910156 17.09375 -29.828125 C 16.019531 -27.753906 15.484375 -25.367188 15.484375 -22.671875 C 15.484375 -19.960938 16.019531 -17.566406 17.09375 -15.484375 C 18.164062 -13.410156 19.675781 -11.789062 21.625 -10.625 C 23.570312 -9.457031 25.804688 -8.875 28.328125 -8.875 Z M 28.328125 -8.875 "/></g></g></g><g fill="#ffffff" fill-opacity="1"><g transform="translate(346.464013, 100.43936)"><g><path d="M 5.765625 0 L 5.765625 -45.328125 L 16.15625 -45.328125 L 16.15625 0 Z M 16.15625 -25.21875 L 12.5625 -27.015625 C 12.5625 -32.742188 13.832031 -37.382812 16.375 -40.9375 C 18.925781 -44.5 22.785156 -46.28125 27.953125 -46.28125 C 30.222656 -46.28125 32.269531 -45.867188 34.09375 -45.046875 C 35.914062 -44.222656 37.613281 -42.898438 39.1875 -41.078125 L 32.390625 -34.09375 C 31.578125 -34.976562 30.664062 -35.609375 29.65625 -35.984375 C 28.644531 -36.359375 27.476562 -36.546875 26.15625 -36.546875 C 23.257812 -36.546875 20.867188 -35.628906 18.984375 -33.796875 C 17.097656 -31.972656 16.15625 -29.113281 16.15625 -25.21875 Z M 16.15625 -25.21875 "/></g></g></g><g fill="#ffffff" fill-opacity="1"><g transform="translate(386.601787, 100.43936)"><g><path d="M 24.75 0.9375 C 20.65625 0.9375 16.953125 -0.0976562 13.640625 -2.171875 C 10.335938 -4.242188 7.722656 -7.054688 5.796875 -10.609375 C 3.878906 -14.171875 2.921875 -18.160156 2.921875 -22.578125 C 2.921875 -27.046875 3.878906 -31.054688 5.796875 -34.609375 C 7.722656 -38.171875 10.335938 -41.003906 13.640625 -43.109375 C 16.953125 -45.222656 20.65625 -46.28125 24.75 -46.28125 C 28.207031 -46.28125 31.273438 -45.535156 33.953125 -44.046875 C 36.628906 -42.566406 38.753906 -40.535156 40.328125 -37.953125 C 41.898438 -35.378906 42.6875 -32.457031 42.6875 -29.1875 L 42.6875 -16.15625 C 42.6875 -12.875 41.914062 -9.941406 40.375 -7.359375 C 38.832031 -4.785156 36.707031 -2.757812 34 -1.28125 C 31.289062 0.195312 28.207031 0.9375 24.75 0.9375 Z M 26.4375 -8.875 C 30.28125 -8.875 33.378906 -10.164062 35.734375 -12.75 C 38.097656 -15.332031 39.28125 -18.640625 39.28125 -22.671875 C 39.28125 -25.367188 38.742188 -27.753906 37.671875 -29.828125 C 36.609375 -31.910156 35.113281 -33.535156 33.1875 -34.703125 C 31.269531 -35.867188 29.019531 -36.453125 26.4375 -36.453125 C 23.925781 -36.453125 21.707031 -35.867188 19.78125 -34.703125 C 17.863281 -33.535156 16.351562 -31.910156 15.25 -29.828125 C 14.144531 -27.753906 13.59375 -25.367188 13.59375 -22.671875 C 13.59375 -19.960938 14.144531 -17.566406 15.25 -15.484375 C 16.351562 -13.410156 17.863281 -11.789062 19.78125 -10.625 C 21.707031 -9.457031 23.925781 -8.875 26.4375 -8.875 Z M 38.625 0 L 38.625 -12.1875 L 40.421875 -23.234375 L 38.625 -34.1875 L 38.625 -45.328125 L 49.015625 -45.328125 L 49.015625 0 Z M 38.625 0 "/></g></g></g><g fill="#ffffff" fill-opacity="1"><g transform="translate(441.378049, 100.43936)"><g><path d="M 36.828125 0 L 36.828125 -26.15625 C 36.828125 -29.175781 35.863281 -31.660156 33.9375 -33.609375 C 32.019531 -35.566406 29.550781 -36.546875 26.53125 -36.546875 C 24.519531 -36.546875 22.726562 -36.101562 21.15625 -35.21875 C 19.582031 -34.34375 18.351562 -33.117188 17.46875 -31.546875 C 16.59375 -29.972656 16.15625 -28.175781 16.15625 -26.15625 L 12.09375 -28.421875 C 12.09375 -31.890625 12.847656 -34.957031 14.359375 -37.625 C 15.867188 -40.300781 17.957031 -42.410156 20.625 -43.953125 C 23.300781 -45.503906 26.3125 -46.28125 29.65625 -46.28125 C 33.050781 -46.28125 36.070312 -45.410156 38.71875 -43.671875 C 41.363281 -41.941406 43.441406 -39.707031 44.953125 -36.96875 C 46.460938 -34.226562 47.21875 -31.378906 47.21875 -28.421875 L 47.21875 0 Z M 5.765625 0 L 5.765625 -45.328125 L 16.15625 -45.328125 L 16.15625 0 Z M 5.765625 0 "/></g></g></g><g fill="#ffffff" fill-opacity="1"><g transform="translate(493.415507, 100.43936)"><g><path d="M 24.75 0.9375 C 20.65625 0.9375 16.953125 -0.0976562 13.640625 -2.171875 C 10.335938 -4.242188 7.722656 -7.054688 5.796875 -10.609375 C 3.878906 -14.171875 2.921875 -18.160156 2.921875 -22.578125 C 2.921875 -27.046875 3.878906 -31.054688 5.796875 -34.609375 C 7.722656 -38.171875 10.335938 -41.003906 13.640625 -43.109375 C 16.953125 -45.222656 20.65625 -46.28125 24.75 -46.28125 C 28.207031 -46.28125 31.273438 -45.535156 33.953125 -44.046875 C 36.628906 -42.566406 38.753906 -40.535156 40.328125 -37.953125 C 41.898438 -35.378906 42.6875 -32.457031 42.6875 -29.1875 L 42.6875 -16.15625 C 42.6875 -12.875 41.914062 -9.941406 40.375 -7.359375 C 38.832031 -4.785156 36.707031 -2.757812 34 -1.28125 C 31.289062 0.195312 28.207031 0.9375 24.75 0.9375 Z M 26.4375 -8.875 C 29.019531 -8.875 31.269531 -9.457031 33.1875 -10.625 C 35.113281 -11.789062 36.609375 -13.410156 37.671875 -15.484375 C 38.742188 -17.566406 39.28125 -19.960938 39.28125 -22.671875 C 39.28125 -25.367188 38.742188 -27.753906 37.671875 -29.828125 C 36.609375 -31.910156 35.113281 -33.535156 33.1875 -34.703125 C 31.269531 -35.867188 29.050781 -36.453125 26.53125 -36.453125 C 23.957031 -36.453125 21.707031 -35.867188 19.78125 -34.703125 C 17.863281 -33.535156 16.351562 -31.910156 15.25 -29.828125 C 14.144531 -27.753906 13.59375 -25.367188 13.59375 -22.671875 C 13.59375 -19.960938 14.144531 -17.566406 15.25 -15.484375 C 16.351562 -13.410156 17.863281 -11.789062 19.78125 -10.625 C 21.707031 -9.457031 23.925781 -8.875 26.4375 -8.875 Z M 49.015625 0 L 38.625 0 L 38.625 -12.1875 L 40.421875 -23.234375 L 38.625 -34.1875 L 38.625 -68 L 49.015625 -68 Z M 49.015625 0 "/></g></g></g><g clip-path="url(#32ecae455c)"><g clip-path="url(#d84c4096ef)"><path fill="#ffffff" d="M 636.621094 0 L 750.21875 0 L 750.21875 112.71875 L 636.621094 112.71875 Z M 636.621094 0 " fill-opacity="1" fill-rule="nonzero"/></g></g><g clip-path="url(#e9b35b04e9)"><path fill="#000000" d="M 699.722656 41.203125 L 647.546875 93.300781 L 647.546875 70.699219 L 699.722656 18.558594 Z M 683.667969 70.617188 L 683.667969 93.300781 L 719.789062 57.273438 L 719.789062 93.300781 L 735.84375 77.269531 L 735.84375 18.558594 Z M 683.667969 70.617188 " fill-opacity="1" fill-rule="nonzero"/></g><g clip-path="url(#12d3d3c66f)"><path fill="#ffffff" d="M 83.246094 195.128906 C 47.21875 195.25 18.421875 224.46875 18.894531 260.402344 C 18.9375 264.019531 19.28125 267.609375 19.933594 271.167969 C 20.585938 274.726562 21.53125 278.203125 22.773438 281.605469 C 24.015625 285.003906 25.535156 288.273438 27.328125 291.417969 C 29.125 294.558594 31.175781 297.527344 33.472656 300.324219 C 33.835938 300.769531 34.125 301.253906 34.34375 301.785156 C 34.558594 302.316406 34.691406 302.867188 34.742188 303.4375 C 34.789062 304.003906 34.753906 304.570312 34.636719 305.128906 C 34.515625 305.6875 34.316406 306.21875 34.035156 306.71875 L 28.472656 316.660156 C 26.929688 319.417969 29.441406 322.679688 32.507812 321.898438 L 51.351562 317.113281 C 52.707031 316.769531 54.015625 316.902344 55.273438 317.515625 C 59.441406 319.535156 63.777344 321.085938 68.277344 322.171875 C 72.78125 323.253906 77.347656 323.847656 81.980469 323.945312 C 118.199219 324.761719 147.933594 295.890625 148.046875 259.75 C 148.15625 224.007812 119.082031 195.007812 83.246094 195.128906 Z M 83.46875 316.023438 C 81.613281 316.023438 79.761719 315.933594 77.917969 315.753906 C 76.070312 315.570312 74.238281 315.300781 72.421875 314.9375 C 70.601562 314.578125 68.804688 314.128906 67.03125 313.59375 C 65.257812 313.054688 63.511719 312.433594 61.796875 311.726562 C 60.085938 311.015625 58.410156 310.226562 56.777344 309.355469 C 55.140625 308.484375 53.550781 307.535156 52.007812 306.507812 C 50.46875 305.480469 48.980469 304.378906 47.546875 303.203125 C 46.113281 302.03125 44.742188 300.789062 43.429688 299.480469 C 42.117188 298.175781 40.875 296.804688 39.699219 295.375 C 38.519531 293.945312 37.417969 292.460938 36.386719 290.921875 C 35.355469 289.386719 34.40625 287.800781 33.53125 286.167969 C 32.65625 284.539062 31.863281 282.867188 31.15625 281.160156 C 30.445312 279.449219 29.820312 277.710938 29.28125 275.941406 C 28.746094 274.171875 28.292969 272.378906 27.933594 270.5625 C 27.570312 268.75 27.300781 266.921875 27.117188 265.082031 C 26.9375 263.242188 26.84375 261.394531 26.84375 259.546875 C 26.84375 228.351562 52.195312 203.066406 83.46875 203.066406 C 114.617188 203.066406 139.890625 228.15625 140.085938 259.183594 C 140.285156 290.3125 114.675781 316.023438 83.46875 316.023438 Z M 83.46875 316.023438 " fill-opacity="1" fill-rule="nonzero"/></g><path fill="#ffffff" d="M 73.347656 232.085938 L 73.375 232.140625 L 76.75 238.820312 C 77.117188 239.542969 77.355469 240.304688 77.476562 241.105469 C 77.59375 241.910156 77.578125 242.707031 77.4375 243.503906 C 77.292969 244.304688 77.027344 245.058594 76.636719 245.769531 C 76.25 246.480469 75.757812 247.109375 75.164062 247.664062 C 74.570312 248.210938 74.082031 248.835938 73.695312 249.542969 C 73.304688 250.25 73.039062 251 72.890625 251.789062 C 72.746094 252.582031 72.730469 253.378906 72.84375 254.175781 C 72.957031 254.972656 73.191406 255.730469 73.550781 256.453125 C 75.578125 260.515625 79.089844 266.109375 84.449219 270.148438 C 85.050781 270.605469 85.703125 270.960938 86.414062 271.21875 C 87.121094 271.480469 87.851562 271.628906 88.605469 271.667969 C 89.359375 271.707031 90.101562 271.632812 90.832031 271.449219 C 91.5625 271.265625 92.25 270.980469 92.898438 270.589844 L 95.070312 269.269531 C 96.058594 268.671875 97.128906 268.316406 98.28125 268.210938 C 99.433594 268.105469 100.550781 268.257812 101.632812 268.667969 L 110.277344 271.945312 C 110.738281 272.121094 111.175781 272.339844 111.59375 272.597656 C 112.011719 272.859375 112.398438 273.160156 112.757812 273.496094 C 113.117188 273.832031 113.4375 274.199219 113.722656 274.601562 C 114.007812 275 114.253906 275.425781 114.453125 275.875 C 114.65625 276.320312 114.8125 276.785156 114.921875 277.265625 C 115.03125 277.742188 115.09375 278.226562 115.109375 278.71875 C 115.125 279.210938 115.089844 279.695312 115.007812 280.179688 C 114.925781 280.664062 114.796875 281.136719 114.621094 281.597656 C 114.523438 281.859375 114.40625 282.117188 114.277344 282.367188 L 111.882812 287 C 111.492188 287.753906 110.984375 288.421875 110.367188 289.003906 C 109.75 289.589844 109.050781 290.054688 108.273438 290.398438 C 107.496094 290.746094 106.683594 290.953125 105.835938 291.023438 C 104.984375 291.09375 104.148438 291.023438 103.324219 290.808594 C 89.75 287.304688 57.390625 275.125 54.785156 238.296875 C 54.730469 237.566406 54.785156 236.84375 54.949219 236.128906 C 55.109375 235.414062 55.371094 234.738281 55.730469 234.097656 C 56.089844 233.460938 56.535156 232.886719 57.0625 232.378906 C 57.59375 231.871094 58.183594 231.449219 58.835938 231.113281 L 63.246094 228.855469 C 63.683594 228.628906 64.140625 228.449219 64.613281 228.316406 C 65.085938 228.179688 65.570312 228.09375 66.058594 228.050781 C 66.550781 228.011719 67.042969 228.019531 67.53125 228.074219 C 68.019531 228.132812 68.5 228.234375 68.96875 228.382812 C 69.4375 228.535156 69.886719 228.726562 70.316406 228.96875 C 70.746094 229.207031 71.152344 229.484375 71.527344 229.800781 C 71.902344 230.117188 72.242188 230.46875 72.550781 230.855469 C 72.855469 231.238281 73.121094 231.648438 73.347656 232.085938 Z M 73.347656 232.085938 " fill-opacity="1" fill-rule="nonzero"/><g clip-path="url(#a3618694fa)"><path fill="#ffffff" d="M 316.082031 214.785156 L 310.398438 214.785156 L 310.398438 206.300781 C 310.398438 204.257812 308.738281 202.613281 306.710938 202.613281 C 304.667969 202.613281 303.023438 204.273438 303.023438 206.300781 L 303.023438 214.800781 L 252.355469 214.800781 L 252.355469 206.300781 C 252.355469 204.257812 250.695312 202.613281 248.667969 202.613281 C 246.625 202.613281 244.980469 204.273438 244.980469 206.300781 L 244.980469 214.800781 L 241.402344 214.800781 C 229.746094 214.800781 220.300781 224.246094 220.300781 235.902344 L 220.300781 303.769531 C 220.300781 315.425781 229.746094 324.871094 241.402344 324.871094 L 316.082031 324.871094 C 327.734375 324.871094 337.179688 315.425781 337.179688 303.769531 L 337.179688 235.902344 C 337.195312 224.246094 327.734375 214.785156 316.082031 214.785156 Z M 303.007812 218.6875 L 303.007812 226.347656 C 303.007812 228.390625 304.667969 230.035156 306.695312 230.035156 C 308.738281 230.035156 310.382812 228.375 310.382812 226.347656 L 310.382812 218.976562 C 312.742188 220.347656 314.34375 222.90625 314.34375 225.832031 C 314.34375 230.203125 310.792969 233.753906 306.421875 233.753906 C 302.050781 233.753906 298.5 230.203125 298.5 225.832031 C 298.53125 222.679688 300.359375 219.964844 303.007812 218.6875 Z M 244.964844 218.824219 L 244.964844 226.347656 C 244.964844 228.390625 246.625 230.035156 248.652344 230.035156 C 250.695312 230.035156 252.339844 228.375 252.339844 226.347656 L 252.339844 218.824219 C 254.851562 220.148438 256.558594 222.785156 256.558594 225.816406 C 256.558594 230.1875 253.007812 233.738281 248.636719 233.738281 C 244.265625 233.738281 240.714844 230.1875 240.714844 225.816406 C 240.746094 222.785156 242.46875 220.148438 244.964844 218.824219 Z M 329.808594 303.757812 C 329.808594 311.328125 323.652344 317.46875 316.09375 317.46875 L 241.402344 317.46875 C 233.828125 317.46875 227.691406 311.3125 227.691406 303.757812 L 227.691406 247.539062 L 329.808594 247.539062 Z M 329.808594 303.757812 " fill-opacity="1" fill-rule="nonzero"/></g><path fill="#ffffff" d="M 252.460938 268.824219 L 242.238281 268.824219 C 241.417969 268.824219 240.746094 268.152344 240.746094 267.332031 L 240.746094 257.109375 C 240.746094 256.285156 241.417969 255.613281 242.238281 255.613281 L 252.460938 255.613281 C 253.285156 255.613281 253.953125 256.285156 253.953125 257.109375 L 253.953125 267.332031 C 253.9375 268.152344 253.285156 268.824219 252.460938 268.824219 Z M 252.460938 268.824219 " fill-opacity="1" fill-rule="nonzero"/><path fill="#ffffff" d="M 252.460938 289.785156 L 242.238281 289.785156 C 241.417969 289.785156 240.746094 289.117188 240.746094 288.292969 L 240.746094 278.070312 C 240.746094 277.246094 241.417969 276.578125 242.238281 276.578125 L 252.460938 276.578125 C 253.285156 276.578125 253.953125 277.246094 253.953125 278.070312 L 253.953125 288.292969 C 253.9375 289.132812 253.285156 289.785156 252.460938 289.785156 Z M 252.460938 289.785156 " fill-opacity="1" fill-rule="nonzero"/><path fill="#ffffff" d="M 252.460938 310.765625 L 242.238281 310.765625 C 241.417969 310.765625 240.746094 310.09375 240.746094 309.269531 L 240.746094 299.046875 C 240.746094 298.226562 241.417969 297.554688 242.238281 297.554688 L 252.460938 297.554688 C 253.285156 297.554688 253.953125 298.226562 253.953125 299.046875 L 253.953125 309.285156 C 253.9375 310.09375 253.285156 310.765625 252.460938 310.765625 Z M 252.460938 310.765625 " fill-opacity="1" fill-rule="nonzero"/><path fill="#ffffff" d="M 273.421875 268.824219 L 263.203125 268.824219 C 262.378906 268.824219 261.707031 268.152344 261.707031 267.332031 L 261.707031 257.109375 C 261.707031 256.285156 262.378906 255.613281 263.203125 255.613281 L 273.421875 255.613281 C 274.246094 255.613281 274.917969 256.285156 274.917969 257.109375 L 274.917969 267.332031 C 274.917969 268.152344 274.246094 268.824219 273.421875 268.824219 Z M 273.421875 268.824219 " fill-opacity="1" fill-rule="nonzero"/><path fill="#ffffff" d="M 273.421875 289.785156 L 263.203125 289.785156 C 262.378906 289.785156 261.707031 289.117188 261.707031 288.292969 L 261.707031 278.070312 C 261.707031 277.246094 262.378906 276.578125 263.203125 276.578125 L 273.421875 276.578125 C 274.246094 276.578125 274.917969 277.246094 274.917969 278.070312 L 274.917969 288.292969 C 274.917969 289.132812 274.246094 289.785156 273.421875 289.785156 Z M 273.421875 289.785156 " fill-opacity="1" fill-rule="nonzero"/><path fill="#ffffff" d="M 273.421875 310.765625 L 263.203125 310.765625 C 262.378906 310.765625 261.707031 310.09375 261.707031 309.269531 L 261.707031 299.046875 C 261.707031 298.226562 262.378906 297.554688 263.203125 297.554688 L 273.421875 297.554688 C 274.246094 297.554688 274.917969 298.226562 274.917969 299.046875 L 274.917969 309.285156 C 274.917969 310.09375 274.246094 310.765625 273.421875 310.765625 Z M 273.421875 310.765625 " fill-opacity="1" fill-rule="nonzero"/><path fill="#ffffff" d="M 294.402344 268.824219 L 284.179688 268.824219 C 283.355469 268.824219 282.6875 268.152344 282.6875 267.332031 L 282.6875 257.109375 C 282.6875 256.285156 283.355469 255.613281 284.179688 255.613281 L 294.402344 255.613281 C 295.222656 255.613281 295.894531 256.285156 295.894531 257.109375 L 295.894531 267.332031 C 295.878906 268.152344 295.222656 268.824219 294.402344 268.824219 Z M 294.402344 268.824219 " fill-opacity="1" fill-rule="nonzero"/><path fill="#ffffff" d="M 294.402344 289.785156 L 284.179688 289.785156 C 283.355469 289.785156 282.6875 289.117188 282.6875 288.292969 L 282.6875 278.070312 C 282.6875 277.246094 283.355469 276.578125 284.179688 276.578125 L 294.402344 276.578125 C 295.222656 276.578125 295.894531 277.246094 295.894531 278.070312 L 295.894531 288.292969 C 295.878906 289.132812 295.222656 289.785156 294.402344 289.785156 Z M 294.402344 289.785156 " fill-opacity="1" fill-rule="nonzero"/><path fill="#ffffff" d="M 294.402344 310.765625 L 284.179688 310.765625 C 283.355469 310.765625 282.6875 310.09375 282.6875 309.269531 L 282.6875 299.046875 C 282.6875 298.226562 283.355469 297.554688 284.179688 297.554688 L 294.402344 297.554688 C 295.222656 297.554688 295.894531 298.226562 295.894531 299.046875 L 295.894531 309.285156 C 295.878906 310.09375 295.222656 310.765625 294.402344 310.765625 Z M 294.402344 310.765625 " fill-opacity="1" fill-rule="nonzero"/><path fill="#ffffff" d="M 315.378906 268.824219 L 305.15625 268.824219 C 304.335938 268.824219 303.664062 268.152344 303.664062 267.332031 L 303.664062 257.109375 C 303.664062 256.285156 304.335938 255.613281 305.15625 255.613281 L 315.378906 255.613281 C 316.203125 255.613281 316.871094 256.285156 316.871094 257.109375 L 316.871094 267.332031 C 316.855469 268.152344 316.1875 268.824219 315.378906 268.824219 Z M 315.378906 268.824219 " fill-opacity="1" fill-rule="nonzero"/><path fill="#ffffff" d="M 315.378906 289.785156 L 305.15625 289.785156 C 304.335938 289.785156 303.664062 289.117188 303.664062 288.292969 L 303.664062 278.070312 C 303.664062 277.246094 304.335938 276.578125 305.15625 276.578125 L 315.378906 276.578125 C 316.203125 276.578125 316.871094 277.246094 316.871094 278.070312 L 316.871094 288.292969 C 316.855469 289.132812 316.1875 289.785156 315.378906 289.785156 Z M 315.378906 289.785156 " fill-opacity="1" fill-rule="nonzero"/><g clip-path="url(#c57c6c87bf)"><path fill="#ffffff" d="M 546.914062 237.53125 C 546.914062 237.433594 546.914062 237.34375 546.914062 237.246094 C 546.894531 236.492188 546.84375 235.738281 546.753906 234.988281 C 546.664062 234.234375 546.539062 233.492188 546.378906 232.75 C 546.214844 232.011719 546.019531 231.285156 545.785156 230.5625 C 545.554688 229.84375 545.289062 229.136719 544.988281 228.445312 C 544.6875 227.75 544.351562 227.074219 543.984375 226.410156 C 543.621094 225.75 543.222656 225.105469 542.792969 224.484375 C 542.363281 223.859375 541.90625 223.261719 541.417969 222.679688 C 540.933594 222.101562 540.417969 221.550781 539.878906 221.019531 C 539.335938 220.492188 538.773438 219.988281 538.183594 219.515625 C 537.59375 219.042969 536.984375 218.597656 536.351562 218.183594 C 535.71875 217.765625 535.066406 217.382812 534.398438 217.03125 C 533.730469 216.679688 533.042969 216.363281 532.34375 216.074219 C 531.644531 215.789062 530.929688 215.539062 530.207031 215.324219 C 529.480469 215.105469 528.75 214.925781 528.007812 214.78125 C 527.265625 214.636719 526.515625 214.527344 525.765625 214.453125 C 525.011719 214.378906 524.257812 214.34375 523.5 214.34375 L 443.210938 214.34375 C 442.457031 214.34375 441.703125 214.382812 440.953125 214.457031 C 440.199219 214.53125 439.453125 214.640625 438.714844 214.789062 C 437.972656 214.9375 437.242188 215.117188 436.519531 215.335938 C 435.792969 215.550781 435.082031 215.804688 434.382812 216.089844 C 433.6875 216.378906 433.003906 216.695312 432.335938 217.046875 C 431.667969 217.402344 431.015625 217.785156 430.386719 218.199219 C 429.753906 218.613281 429.144531 219.058594 428.558594 219.535156 C 427.972656 220.007812 427.40625 220.507812 426.867188 221.039062 C 426.328125 221.566406 425.816406 222.121094 425.332031 222.699219 C 424.84375 223.277344 424.386719 223.878906 423.960938 224.5 C 423.535156 225.121094 423.136719 225.765625 422.769531 226.425781 C 422.40625 227.085938 422.074219 227.761719 421.773438 228.457031 C 421.472656 229.148438 421.207031 229.855469 420.976562 230.574219 C 420.742188 231.292969 420.546875 232.019531 420.386719 232.757812 C 420.226562 233.496094 420.101562 234.238281 420.011719 234.988281 C 419.921875 235.738281 419.867188 236.492188 419.851562 237.246094 C 419.851562 237.34375 419.851562 237.433594 419.851562 237.53125 C 419.851562 237.628906 419.851562 237.679688 419.851562 237.753906 L 419.851562 289.457031 C 419.851562 290.222656 419.890625 290.988281 419.96875 291.75 C 420.042969 292.511719 420.15625 293.269531 420.304688 294.019531 C 420.457031 294.773438 420.644531 295.515625 420.867188 296.25 C 421.089844 296.980469 421.347656 297.703125 421.640625 298.410156 C 421.933594 299.121094 422.261719 299.8125 422.625 300.488281 C 422.984375 301.164062 423.378906 301.820312 423.804688 302.457031 C 424.230469 303.09375 424.6875 303.710938 425.171875 304.300781 C 425.660156 304.894531 426.175781 305.460938 426.714844 306.003906 C 427.257812 306.546875 427.824219 307.058594 428.417969 307.546875 C 429.011719 308.03125 429.625 308.488281 430.261719 308.914062 C 430.898438 309.339844 431.558594 309.734375 432.234375 310.097656 C 432.910156 310.457031 433.601562 310.785156 434.308594 311.078125 C 435.015625 311.371094 435.738281 311.632812 436.472656 311.855469 C 437.203125 312.078125 437.945312 312.261719 438.699219 312.414062 C 439.449219 312.5625 440.207031 312.675781 440.96875 312.753906 C 441.734375 312.828125 442.496094 312.867188 443.265625 312.867188 L 523.574219 312.867188 C 524.339844 312.863281 525.105469 312.824219 525.863281 312.746094 C 526.625 312.667969 527.382812 312.550781 528.132812 312.402344 C 528.878906 312.25 529.621094 312.0625 530.351562 311.835938 C 531.085938 311.613281 531.800781 311.351562 532.507812 311.058594 C 533.214844 310.761719 533.90625 310.433594 534.578125 310.070312 C 535.25 309.710938 535.90625 309.316406 536.542969 308.886719 C 537.175781 308.460938 537.789062 308.003906 538.378906 307.519531 C 538.96875 307.03125 539.535156 306.519531 540.074219 305.976562 C 540.617188 305.433594 541.128906 304.867188 541.613281 304.277344 C 542.097656 303.683594 542.550781 303.070312 542.976562 302.433594 C 543.398438 301.796875 543.792969 301.140625 544.152344 300.464844 C 544.511719 299.792969 544.839844 299.101562 545.132812 298.394531 C 545.425781 297.6875 545.679688 296.96875 545.902344 296.234375 C 546.125 295.503906 546.3125 294.761719 546.460938 294.011719 C 546.609375 293.261719 546.722656 292.507812 546.796875 291.746094 C 546.875 290.984375 546.910156 290.21875 546.914062 289.457031 L 546.914062 237.753906 C 546.914062 237.679688 546.914062 237.605469 546.914062 237.53125 Z M 443.210938 225.898438 L 523.523438 225.898438 C 524.160156 225.902344 524.789062 225.953125 525.414062 226.058594 C 526.042969 226.160156 526.65625 226.316406 527.257812 226.515625 C 527.859375 226.71875 528.441406 226.96875 529.003906 227.265625 C 529.566406 227.5625 530.097656 227.898438 530.605469 228.28125 C 531.113281 228.664062 531.585938 229.085938 532.027344 229.542969 C 532.464844 230 532.863281 230.492188 533.226562 231.015625 C 533.585938 231.535156 533.902344 232.085938 534.175781 232.660156 C 534.445312 233.230469 534.671875 233.824219 534.847656 234.433594 L 483.355469 259.894531 L 431.886719 234.433594 C 432.066406 233.824219 432.289062 233.230469 432.5625 232.660156 C 432.832031 232.085938 433.148438 231.535156 433.511719 231.015625 C 433.871094 230.492188 434.269531 230 434.710938 229.542969 C 435.148438 229.085938 435.621094 228.664062 436.128906 228.28125 C 436.636719 227.898438 437.171875 227.5625 437.734375 227.265625 C 438.292969 226.96875 438.875 226.71875 439.476562 226.515625 C 440.078125 226.316406 440.695312 226.160156 441.320312 226.058594 C 441.945312 225.953125 442.578125 225.902344 443.210938 225.898438 Z M 523.523438 301.3125 L 443.210938 301.3125 C 442.433594 301.3125 441.664062 301.234375 440.898438 301.082031 C 440.136719 300.929688 439.394531 300.703125 438.675781 300.40625 C 437.957031 300.109375 437.273438 299.742188 436.628906 299.308594 C 435.980469 298.878906 435.382812 298.386719 434.832031 297.835938 C 434.28125 297.285156 433.789062 296.6875 433.359375 296.039062 C 432.925781 295.394531 432.558594 294.710938 432.261719 293.992188 C 431.964844 293.273438 431.738281 292.53125 431.585938 291.769531 C 431.433594 291.003906 431.355469 290.234375 431.355469 289.457031 L 431.355469 247.0625 L 480.796875 271.542969 C 481.605469 271.941406 482.457031 272.140625 483.355469 272.140625 C 484.257812 272.140625 485.109375 271.941406 485.917969 271.542969 L 535.355469 247.0625 L 535.355469 289.457031 C 535.355469 290.234375 535.28125 291.003906 535.128906 291.769531 C 534.976562 292.53125 534.75 293.273438 534.453125 293.992188 C 534.152344 294.710938 533.789062 295.394531 533.355469 296.039062 C 532.921875 296.6875 532.429688 297.285156 531.882812 297.835938 C 531.332031 298.386719 530.730469 298.878906 530.085938 299.308594 C 529.4375 299.742188 528.753906 300.109375 528.035156 300.40625 C 527.316406 300.703125 526.578125 300.929688 525.8125 301.082031 C 525.050781 301.234375 524.277344 301.3125 523.5 301.3125 Z M 523.523438 301.3125 " fill-opacity="1" fill-rule="nonzero"/></g><g clip-path="url(#2b4dd833cb)"><path fill="#ffffff" d="M 738.839844 235.417969 C 737.402344 237.910156 734.824219 239.398438 731.949219 239.398438 L 654.671875 239.398438 C 651.792969 239.398438 649.21875 237.910156 647.777344 235.417969 C 646.339844 232.925781 646.339844 229.953125 647.777344 227.460938 L 686.417969 160.535156 C 687.855469 158.042969 690.433594 156.554688 693.308594 156.554688 C 696.1875 156.554688 698.761719 158.042969 700.203125 160.535156 L 738.839844 227.460938 C 740.28125 229.953125 740.28125 232.925781 738.839844 235.417969 Z M 706.136719 154.304688 C 703.460938 149.664062 698.664062 146.898438 693.308594 146.898438 C 687.953125 146.898438 683.160156 149.664062 680.480469 154.304688 L 639.414062 225.4375 C 636.738281 230.074219 636.734375 235.613281 639.414062 240.25 C 642.089844 244.886719 646.886719 247.65625 652.242188 247.65625 L 734.378906 247.65625 C 739.734375 247.65625 744.527344 244.886719 747.207031 240.25 C 749.882812 235.613281 749.882812 230.074219 747.207031 225.4375 L 706.136719 154.304688 " fill-opacity="1" fill-rule="nonzero"/></g><path fill="#ffffff" d="M 693.308594 216.5 C 689.269531 216.5 685.984375 219.785156 685.984375 223.824219 C 685.984375 227.867188 689.269531 231.152344 693.308594 231.152344 C 697.351562 231.152344 700.636719 227.867188 700.636719 223.824219 C 700.636719 219.785156 697.351562 216.5 693.308594 216.5 " fill-opacity="1" fill-rule="nonzero"/><path fill="#ffffff" d="M 699.167969 208.964844 L 700.582031 178.023438 L 686.035156 178.023438 L 687.453125 208.964844 L 699.167969 208.964844 " fill-opacity="1" fill-rule="nonzero"/><g clip-path="url(#cf96ceb771)"><path fill="#ffffff" d="M 55.183594 406.105469 C 54.882812 406.109375 54.582031 406.144531 54.285156 406.207031 C 53.988281 406.269531 53.703125 406.363281 53.421875 406.484375 C 53.144531 406.601562 52.878906 406.75 52.628906 406.921875 C 52.378906 407.09375 52.148438 407.289062 51.9375 407.503906 C 51.726562 407.722656 51.539062 407.957031 51.375 408.214844 C 51.210938 408.46875 51.070312 408.734375 50.957031 409.019531 C 50.847656 409.300781 50.761719 409.589844 50.707031 409.886719 C 50.652344 410.1875 50.628906 410.488281 50.632812 410.789062 L 50.632812 429.277344 L 32.144531 429.277344 C 31.839844 429.273438 31.535156 429.296875 31.234375 429.355469 C 30.933594 429.410156 30.640625 429.496094 30.355469 429.609375 C 30.070312 429.722656 29.800781 429.863281 29.546875 430.03125 C 29.289062 430.199219 29.050781 430.390625 28.835938 430.605469 C 28.617188 430.820312 28.421875 431.054688 28.25 431.308594 C 28.078125 431.5625 27.933594 431.832031 27.816406 432.113281 C 27.699219 432.398438 27.609375 432.6875 27.546875 432.988281 C 27.488281 433.289062 27.457031 433.59375 27.457031 433.898438 C 27.457031 434.203125 27.488281 434.507812 27.546875 434.808594 C 27.609375 435.109375 27.699219 435.398438 27.816406 435.683594 C 27.933594 435.964844 28.078125 436.234375 28.25 436.488281 C 28.421875 436.742188 28.617188 436.976562 28.835938 437.191406 C 29.050781 437.40625 29.289062 437.597656 29.546875 437.765625 C 29.800781 437.933594 30.070312 438.074219 30.355469 438.1875 C 30.640625 438.300781 30.933594 438.386719 31.234375 438.441406 C 31.535156 438.5 31.839844 438.523438 32.144531 438.519531 L 50.632812 438.519531 L 50.632812 457.007812 C 50.628906 457.3125 50.652344 457.617188 50.707031 457.917969 C 50.765625 458.21875 50.851562 458.511719 50.964844 458.796875 C 51.078125 459.078125 51.21875 459.351562 51.386719 459.605469 C 51.554688 459.863281 51.746094 460.097656 51.960938 460.316406 C 52.175781 460.535156 52.410156 460.730469 52.664062 460.902344 C 52.917969 461.074219 53.1875 461.21875 53.46875 461.335938 C 53.75 461.453125 54.042969 461.542969 54.34375 461.605469 C 54.644531 461.664062 54.945312 461.695312 55.253906 461.695312 C 55.558594 461.695312 55.863281 461.664062 56.164062 461.605469 C 56.464844 461.542969 56.753906 461.453125 57.035156 461.335938 C 57.320312 461.21875 57.585938 461.074219 57.839844 460.902344 C 58.09375 460.730469 58.328125 460.535156 58.542969 460.316406 C 58.757812 460.097656 58.949219 459.863281 59.117188 459.605469 C 59.285156 459.351562 59.425781 459.078125 59.542969 458.796875 C 59.65625 458.511719 59.742188 458.21875 59.796875 457.917969 C 59.851562 457.617188 59.878906 457.3125 59.875 457.007812 L 59.875 438.519531 L 78.359375 438.519531 C 78.667969 438.523438 78.972656 438.5 79.273438 438.441406 C 79.574219 438.386719 79.867188 438.300781 80.148438 438.1875 C 80.433594 438.074219 80.703125 437.933594 80.960938 437.765625 C 81.214844 437.597656 81.453125 437.40625 81.671875 437.191406 C 81.890625 436.976562 82.085938 436.742188 82.257812 436.488281 C 82.425781 436.234375 82.574219 435.964844 82.691406 435.683594 C 82.808594 435.398438 82.898438 435.109375 82.957031 434.808594 C 83.019531 434.507812 83.046875 434.203125 83.046875 433.898438 C 83.046875 433.59375 83.019531 433.289062 82.957031 432.988281 C 82.898438 432.6875 82.808594 432.398438 82.691406 432.113281 C 82.574219 431.832031 82.425781 431.5625 82.257812 431.308594 C 82.085938 431.054688 81.890625 430.820312 81.671875 430.605469 C 81.453125 430.390625 81.214844 430.199219 80.960938 430.03125 C 80.703125 429.863281 80.433594 429.722656 80.148438 429.609375 C 79.867188 429.496094 79.574219 429.410156 79.273438 429.355469 C 78.972656 429.296875 78.667969 429.273438 78.359375 429.277344 L 59.875 429.277344 L 59.875 410.789062 C 59.878906 410.480469 59.851562 410.175781 59.796875 409.871094 C 59.738281 409.566406 59.652344 409.273438 59.535156 408.988281 C 59.417969 408.699219 59.273438 408.429688 59.105469 408.171875 C 58.933594 407.914062 58.738281 407.675781 58.519531 407.457031 C 58.300781 407.238281 58.0625 407.042969 57.804688 406.875 C 57.546875 406.703125 57.277344 406.558594 56.988281 406.445312 C 56.703125 406.328125 56.40625 406.242188 56.105469 406.183594 C 55.800781 406.128906 55.496094 406.101562 55.183594 406.105469 Z M 55.183594 406.105469 " fill-opacity="1" fill-rule="nonzero"/></g><g clip-path="url(#1471fdfbd6)"><path fill="#ffffff" d="M 220.277344 434.132812 C 220.277344 437.425781 217.609375 440.089844 214.320312 440.089844 L 173.359375 440.089844 C 170.070312 440.089844 167.40625 437.425781 167.40625 434.132812 C 167.40625 430.84375 170.070312 428.179688 173.359375 428.179688 L 214.320312 428.179688 C 217.609375 428.179688 220.277344 430.84375 220.277344 434.132812 Z M 220.277344 434.132812 " fill-opacity="1" fill-rule="nonzero"/></g><g clip-path="url(#9cae28b94b)"><path fill="#ffffff" d="M 331.902344 516.136719 C 331.902344 519.707031 333.292969 523.0625 335.816406 525.585938 C 341.027344 530.796875 349.507812 530.796875 354.71875 525.585938 L 389.742188 490.558594 L 424.773438 525.585938 C 427.296875 528.109375 430.652344 529.5 434.222656 529.5 C 437.792969 529.5 441.148438 528.109375 443.671875 525.585938 C 446.195312 523.0625 447.585938 519.707031 447.585938 516.136719 C 447.585938 512.566406 446.195312 509.210938 443.671875 506.6875 L 399.199219 462.214844 C 396.671875 459.6875 393.3125 458.296875 389.742188 458.300781 C 386.175781 458.296875 382.816406 459.6875 380.289062 462.214844 L 335.816406 506.6875 C 333.292969 509.210938 331.902344 512.566406 331.902344 516.136719 " fill-opacity="1" fill-rule="nonzero"/></g></svg>