<svg version="1.1" id="Layer_1" xmlns="http://www.w3.org/2000/svg" xmlns:xlink="http://www.w3.org/1999/xlink" x="0px" y="0px"
	 width="100%" viewBox="0 0 1366 651" enable-background="new 0 0 1366 651" xml:space="preserve">
<path fill="#FE014D" opacity="1.000000" stroke="none" 
	d="
M903.000000,652.000000 
	C602.037231,652.000000 301.574432,652.000000 1.055829,652.000000 
	C1.055829,435.064117 1.055829,218.128204 1.055829,1.096145 
	C456.212830,1.096145 911.425720,1.096145 1366.819336,1.096145 
	C1366.819336,217.999878 1366.819336,434.999939 1366.819336,652.000000 
	C1212.461426,652.000000 1057.980713,652.000000 903.000000,652.000000 
M34.910816,357.499969 
	C34.916702,379.663361 34.770054,401.828705 35.050701,423.988617 
	C35.110443,428.705780 36.084248,433.642822 37.737110,438.067596 
	C44.273773,455.566376 60.036606,465.585938 80.521622,465.600067 
	C140.179886,465.641266 199.838196,465.617676 259.496490,465.602905 
	C261.659698,465.602386 263.829468,465.504211 265.985046,465.320862 
	C288.173981,463.433441 305.074707,445.919037 305.158508,423.675629 
	C305.392700,361.519043 305.129089,299.360626 305.339355,237.203873 
	C305.418701,213.742584 284.842285,194.762924 261.935181,194.870895 
	C200.778458,195.159134 139.619461,194.944702 78.461411,194.980347 
	C53.369049,194.994965 34.964951,213.396393 34.929539,238.516510 
	C34.874104,277.844238 34.912289,317.172119 34.910816,357.499969 
M933.524597,372.175629 
	C946.636353,371.468018 959.881653,371.691193 972.828430,369.833710 
	C992.028992,367.078918 1006.138977,356.957733 1011.869629,337.444977 
	C1015.779236,324.132721 1016.459778,310.475922 1014.408203,296.870819 
	C1010.431396,270.497375 996.260620,256.196381 969.557861,254.194870 
	C946.037537,252.431900 922.336487,253.076736 898.714905,252.684952 
	C898.458557,252.680710 898.196228,253.035217 898.003418,253.174210 
	C898.003418,313.245697 898.003418,373.259064 898.003418,433.089111 
	C906.158142,433.089111 913.892639,433.089111 922.110840,433.089111 
	C922.110840,412.607330 922.110840,392.545288 922.110840,372.175598 
	C925.919312,372.175598 929.226685,372.175598 933.524597,372.175629 
M823.427246,311.908417 
	C809.643982,327.763550 795.860718,343.618683 782.077454,359.473816 
	C781.741028,359.298126 781.404663,359.122467 781.068237,358.946808 
	C781.068237,319.059021 781.068237,279.171265 781.068237,239.197632 
	C773.448364,239.197632 766.247498,239.197632 759.199341,239.197632 
	C759.199341,304.098633 759.199341,368.627594 759.199341,433.183777 
	C766.665833,433.183777 773.747986,433.183777 781.169983,433.183777 
	C781.169983,419.383240 781.156738,405.906036 781.189026,392.428925 
	C781.192505,390.965088 780.912109,389.040771 781.693420,388.114441 
	C786.244629,382.717896 791.073730,377.555664 795.999390,372.103516 
	C797.452087,374.100861 798.440063,375.428925 799.396729,376.779144 
	C812.001892,394.569672 824.578735,412.380432 837.251587,430.122589 
	C838.226868,431.488037 839.838318,433.288422 841.208862,433.336884 
	C849.629578,433.634552 858.066101,433.486053 867.431824,433.486053 
	C847.880859,407.226044 828.959656,381.811920 809.929504,356.251526 
	C828.062012,336.335999 845.937805,316.702393 864.641479,296.159485 
	C861.108276,296.159485 858.844543,296.133545 856.581543,296.164429 
	C850.105835,296.252808 842.732910,294.467834 837.402771,296.990356 
	C831.870361,299.608582 828.315247,306.404877 823.427246,311.908417 
M629.054626,338.187897 
	C631.807678,335.493622 634.281738,332.414764 637.366211,330.177429 
	C646.505066,323.548523 655.573975,316.722504 667.106262,314.514771 
	C681.685974,311.723602 690.975464,318.597015 691.958496,333.349854 
	C692.467346,340.987244 692.794861,348.650116 692.830017,356.303223 
	C692.939575,380.120636 692.870239,403.938843 692.870300,427.756744 
	C692.870300,429.529572 692.870300,431.302399 692.870300,433.250275 
	C700.552490,433.250275 707.651001,433.250275 714.975037,433.250275 
	C715.067871,431.705933 715.214111,430.403046 715.214478,429.100067 
	C715.223145,400.118866 715.282532,371.137360 715.156372,342.156708 
	C715.130371,336.183228 714.793335,330.154663 713.917542,324.252686 
	C711.879517,310.517548 706.539368,298.703308 691.963074,294.366547 
	C680.321533,290.902954 668.355225,290.874481 657.480225,296.849518 
	C647.689453,302.228821 638.544739,308.783966 628.962585,314.918060 
	C628.962585,309.192047 628.962585,302.838287 628.962585,296.407623 
	C621.287048,296.407623 614.204712,296.407623 607.003845,296.407623 
	C607.003845,342.182800 607.003845,387.709961 607.003845,433.227234 
	C614.496765,433.227234 621.607605,433.227234 629.049500,433.227234 
	C629.049500,401.652344 629.049500,370.357483 629.054626,338.187897 
M476.499634,433.538635 
	C488.064087,433.538635 499.628540,433.538635 511.108765,433.538635 
	C511.108765,425.718781 511.108765,418.802429 511.108765,411.354431 
	C483.872375,411.354431 456.989441,411.354431 429.462738,411.354431 
	C429.462738,358.153046 429.462738,305.492584 429.462738,252.836365 
	C421.062469,252.836365 413.320160,252.836365 405.480743,252.836365 
	C405.480743,313.102966 405.480743,372.994263 405.480743,433.538574 
	C428.972748,433.538574 452.236176,433.538574 476.499634,433.538635 
M1298.236816,376.868561 
	C1307.631104,350.147217 1317.025513,323.425873 1326.612671,296.155823 
	C1319.654053,296.155823 1313.650879,296.410034 1307.683105,296.059998 
	C1304.132202,295.851746 1302.887573,297.243561 1301.860596,300.408783 
	C1291.342651,332.824005 1280.664062,365.187073 1270.022583,397.562195 
	C1269.490112,399.182129 1268.888794,400.779449 1267.910645,403.542389 
	C1266.927856,400.658997 1266.394165,399.132812 1265.886719,397.597900 
	C1255.242188,365.400421 1244.626831,333.193268 1233.888916,301.027039 
	C1233.291016,299.236481 1231.764893,296.464539 1230.533691,296.389191 
	C1223.315918,295.947388 1216.057251,296.172211 1208.272583,296.172211 
	C1209.340454,299.388977 1210.136108,301.902832 1211.006592,304.390503 
	C1225.554321,345.964905 1240.163818,387.517883 1254.570312,429.141144 
	C1255.773926,432.618805 1257.337524,433.845520 1260.901978,433.586090 
	C1265.046387,433.284424 1269.251221,433.252960 1273.389648,433.593170 
	C1277.166138,433.903687 1278.887329,432.619965 1280.124634,428.942413 
	C1285.902100,411.772491 1292.023682,394.718414 1298.236816,376.868561 
M1101.615356,296.995331 
	C1092.072998,303.572510 1082.530640,310.149689 1072.732300,316.903320 
	C1072.732300,310.165985 1072.732300,303.266235 1072.732300,296.519531 
	C1065.175415,296.519531 1058.101562,296.519531 1050.998169,296.519531 
	C1050.998169,342.264923 1050.998169,387.650360 1050.998169,433.271881 
	C1058.386108,433.271881 1065.482544,433.271881 1073.085938,433.271881 
	C1073.085938,431.257935 1073.085938,429.474274 1073.085938,427.690582 
	C1073.085938,399.553436 1073.063843,371.416260 1073.135498,343.279297 
	C1073.140259,341.400055 1073.213013,338.888214 1074.342163,337.744720 
	C1083.401855,328.569061 1092.944092,319.785614 1106.428101,318.031158 
	C1112.403442,317.253662 1118.564087,317.899963 1124.880371,317.899963 
	C1126.206909,312.203949 1127.395020,306.529022 1128.882202,300.933594 
	C1129.765259,297.611359 1128.696045,296.035461 1125.425781,295.343567 
	C1117.588257,293.685516 1109.906738,293.997437 1101.615356,296.995331 
M548.581299,296.161743 
	C545.782410,296.161743 542.983459,296.161743 539.958008,296.161743 
	C539.958008,342.074432 539.958008,387.587738 539.958008,433.272583 
	C547.366821,433.272583 554.460693,433.272583 561.744019,433.272583 
	C561.744019,387.544769 561.744019,342.051483 561.744019,296.161743 
	C557.480103,296.161743 553.517029,296.161743 548.581299,296.161743 
M1156.822266,339.499908 
	C1156.822266,370.722717 1156.822266,401.945526 1156.822266,433.170044 
	C1164.681152,433.170044 1171.759766,433.170044 1178.873779,433.170044 
	C1178.873779,387.430573 1178.873779,342.028351 1178.873779,296.416260 
	C1171.505249,296.416260 1164.430786,296.416260 1156.822266,296.416260 
	C1156.822266,310.609467 1156.822266,324.554688 1156.822266,339.499908 
M564.890869,255.871262 
	C563.596069,251.528122 560.513916,249.216003 556.167297,248.878479 
	C552.562988,248.598587 548.857056,248.445786 545.303162,248.966858 
	C539.428223,249.828247 537.090454,252.983017 536.378784,259.785675 
	C535.707764,266.199524 538.145569,272.070404 542.864929,273.682861 
	C549.175293,275.838898 555.945618,276.410095 561.547546,272.334290 
	C566.570312,268.679871 565.939697,262.709290 565.109436,257.153473 
	C565.084839,256.989014 565.053223,256.825592 564.890869,255.871262 
M1161.579712,274.263550 
	C1166.174683,274.189178 1170.872070,274.688049 1175.338135,273.891174 
	C1180.581787,272.955597 1182.909058,268.393433 1182.833740,261.437378 
	C1182.758789,254.509552 1180.274902,250.305237 1174.932129,249.156937 
	C1171.731445,248.469055 1168.307861,248.206940 1165.053589,248.506271 
	C1157.895874,249.164688 1155.007568,251.650497 1153.951904,257.162903 
	C1152.359375,265.478394 1154.463623,270.673828 1161.579712,274.263550 
z"/>
<path fill="#FFFEFF" opacity="1.000000" stroke="none" 
	d="
M34.910816,356.999939 
	C34.912289,317.172119 34.874104,277.844238 34.929539,238.516510 
	C34.964951,213.396393 53.369049,194.994965 78.461411,194.980347 
	C139.619461,194.944702 200.778458,195.159134 261.935181,194.870895 
	C284.842285,194.762924 305.418701,213.742584 305.339355,237.203873 
	C305.129089,299.360626 305.392700,361.519043 305.158508,423.675629 
	C305.074707,445.919037 288.173981,463.433441 265.985046,465.320862 
	C263.829468,465.504211 261.659698,465.602386 259.496490,465.602905 
	C199.838196,465.617676 140.179886,465.641266 80.521622,465.600067 
	C60.036606,465.585938 44.273773,455.566376 37.737110,438.067596 
	C36.084248,433.642822 35.110443,428.705780 35.050701,423.988617 
	C34.770054,401.828705 34.916702,379.663361 34.910816,356.999939 
M146.986832,327.672333 
	C147.458466,329.229706 148.513657,330.875854 148.292770,332.327881 
	C147.619705,336.752075 146.456192,341.101746 145.480804,345.479828 
	C143.011337,356.564178 140.540359,367.648163 138.032303,378.901459 
	C160.047516,378.901459 181.457031,378.901459 203.291199,378.901459 
	C199.942398,363.987305 196.719330,349.406769 193.363693,334.856781 
	C192.580185,331.459534 192.646378,328.950226 195.574844,326.135925 
	C205.098633,316.983429 206.364624,303.894928 198.882507,293.007019 
	C190.761658,281.189545 178.800034,277.431458 165.222717,279.222534 
	C152.880524,280.850677 143.223907,287.239319 139.036453,299.433289 
	C135.408737,309.997284 138.464340,319.389740 146.986832,327.672333 
z"/>
<path fill="#FFFCFD" opacity="1.000000" stroke="none" 
	d="
M933.029297,372.175598 
	C929.226685,372.175598 925.919312,372.175598 922.110840,372.175598 
	C922.110840,392.545288 922.110840,412.607330 922.110840,433.089111 
	C913.892639,433.089111 906.158142,433.089111 898.003418,433.089111 
	C898.003418,373.259064 898.003418,313.245697 898.003418,253.174210 
	C898.196228,253.035217 898.458557,252.680710 898.714905,252.684952 
	C922.336487,253.076736 946.037537,252.431900 969.557861,254.194870 
	C996.260620,256.196381 1010.431396,270.497375 1014.408203,296.870819 
	C1016.459778,310.475922 1015.779236,324.132721 1011.869629,337.444977 
	C1006.138977,356.957733 992.028992,367.078918 972.828430,369.833710 
	C959.881653,371.691193 946.636353,371.468018 933.029297,372.175598 
M979.243042,342.798645 
	C982.043701,338.552307 986.447693,334.604767 987.306396,329.996521 
	C989.020325,320.799286 989.823730,311.160797 989.114563,301.848358 
	C988.095520,288.466522 980.671204,278.495453 966.961914,276.500580 
	C952.262024,274.361603 937.262512,274.281158 922.187439,273.288757 
	C922.187439,299.776398 922.187439,324.823547 922.187439,349.774750 
	C934.001587,349.774750 945.485107,350.071472 956.944153,349.670593 
	C964.608765,349.402496 972.214233,348.062744 979.243042,342.798645 
z"/>
<path fill="#FFFDFD" opacity="1.000000" stroke="none" 
	d="
M823.661377,311.641205 
	C828.315247,306.404877 831.870361,299.608582 837.402771,296.990356 
	C842.732910,294.467834 850.105835,296.252808 856.581543,296.164429 
	C858.844543,296.133545 861.108276,296.159485 864.641479,296.159485 
	C845.937805,316.702393 828.062012,336.335999 809.929504,356.251526 
	C828.959656,381.811920 847.880859,407.226044 867.431824,433.486053 
	C858.066101,433.486053 849.629578,433.634552 841.208862,433.336884 
	C839.838318,433.288422 838.226868,431.488037 837.251587,430.122589 
	C824.578735,412.380432 812.001892,394.569672 799.396729,376.779144 
	C798.440063,375.428925 797.452087,374.100861 795.999390,372.103516 
	C791.073730,377.555664 786.244629,382.717896 781.693420,388.114441 
	C780.912109,389.040771 781.192505,390.965088 781.189026,392.428925 
	C781.156738,405.906036 781.169983,419.383240 781.169983,433.183777 
	C773.747986,433.183777 766.665833,433.183777 759.199341,433.183777 
	C759.199341,368.627594 759.199341,304.098633 759.199341,239.197632 
	C766.247498,239.197632 773.448364,239.197632 781.068237,239.197632 
	C781.068237,279.171265 781.068237,319.059021 781.068237,358.946808 
	C781.404663,359.122467 781.741028,359.298126 782.077454,359.473816 
	C795.860718,343.618683 809.643982,327.763550 823.661377,311.641205 
z"/>
<path fill="#FFFDFE" opacity="1.000000" stroke="none" 
	d="
M629.052063,338.625275 
	C629.049500,370.357483 629.049500,401.652344 629.049500,433.227234 
	C621.607605,433.227234 614.496765,433.227234 607.003845,433.227234 
	C607.003845,387.709961 607.003845,342.182800 607.003845,296.407623 
	C614.204712,296.407623 621.287048,296.407623 628.962585,296.407623 
	C628.962585,302.838287 628.962585,309.192047 628.962585,314.918060 
	C638.544739,308.783966 647.689453,302.228821 657.480225,296.849518 
	C668.355225,290.874481 680.321533,290.902954 691.963074,294.366547 
	C706.539368,298.703308 711.879517,310.517548 713.917542,324.252686 
	C714.793335,330.154663 715.130371,336.183228 715.156372,342.156708 
	C715.282532,371.137360 715.223145,400.118866 715.214478,429.100067 
	C715.214111,430.403046 715.067871,431.705933 714.975037,433.250275 
	C707.651001,433.250275 700.552490,433.250275 692.870300,433.250275 
	C692.870300,431.302399 692.870300,429.529572 692.870300,427.756744 
	C692.870239,403.938843 692.939575,380.120636 692.830017,356.303223 
	C692.794861,348.650116 692.467346,340.987244 691.958496,333.349854 
	C690.975464,318.597015 681.685974,311.723602 667.106262,314.514771 
	C655.573975,316.722504 646.505066,323.548523 637.366211,330.177429 
	C634.281738,332.414764 631.807678,335.493622 629.052063,338.625275 
z"/>
<path fill="#FFF6F8" opacity="1.000000" stroke="none" 
	d="
M475.999634,433.538605 
	C452.236176,433.538574 428.972748,433.538574 405.480743,433.538574 
	C405.480743,372.994263 405.480743,313.102966 405.480743,252.836365 
	C413.320160,252.836365 421.062469,252.836365 429.462738,252.836365 
	C429.462738,305.492584 429.462738,358.153046 429.462738,411.354431 
	C456.989441,411.354431 483.872375,411.354431 511.108765,411.354431 
	C511.108765,418.802429 511.108765,425.718781 511.108765,433.538635 
	C499.628540,433.538635 488.064087,433.538635 475.999634,433.538605 
z"/>
<path fill="#FFFBFC" opacity="1.000000" stroke="none" 
	d="
M1298.129517,377.245728 
	C1292.023682,394.718414 1285.902100,411.772491 1280.124634,428.942413 
	C1278.887329,432.619965 1277.166138,433.903687 1273.389648,433.593170 
	C1269.251221,433.252960 1265.046387,433.284424 1260.901978,433.586090 
	C1257.337524,433.845520 1255.773926,432.618805 1254.570312,429.141144 
	C1240.163818,387.517883 1225.554321,345.964905 1211.006592,304.390503 
	C1210.136108,301.902832 1209.340454,299.388977 1208.272583,296.172211 
	C1216.057251,296.172211 1223.315918,295.947388 1230.533691,296.389191 
	C1231.764893,296.464539 1233.291016,299.236481 1233.888916,301.027039 
	C1244.626831,333.193268 1255.242188,365.400421 1265.886719,397.597900 
	C1266.394165,399.132812 1266.927856,400.658997 1267.910645,403.542389 
	C1268.888794,400.779449 1269.490112,399.182129 1270.022583,397.562195 
	C1280.664062,365.187073 1291.342651,332.824005 1301.860596,300.408783 
	C1302.887573,297.243561 1304.132202,295.851746 1307.683105,296.059998 
	C1313.650879,296.410034 1319.654053,296.155823 1326.612671,296.155823 
	C1317.025513,323.425873 1307.631104,350.147217 1298.129517,377.245728 
z"/>
<path fill="#FFFDFE" opacity="1.000000" stroke="none" 
	d="
M1101.981689,296.854340 
	C1109.906738,293.997437 1117.588257,293.685516 1125.425781,295.343567 
	C1128.696045,296.035461 1129.765259,297.611359 1128.882202,300.933594 
	C1127.395020,306.529022 1126.206909,312.203949 1124.880371,317.899963 
	C1118.564087,317.899963 1112.403442,317.253662 1106.428101,318.031158 
	C1092.944092,319.785614 1083.401855,328.569061 1074.342163,337.744720 
	C1073.213013,338.888214 1073.140259,341.400055 1073.135498,343.279297 
	C1073.063843,371.416260 1073.085938,399.553436 1073.085938,427.690582 
	C1073.085938,429.474274 1073.085938,431.257935 1073.085938,433.271881 
	C1065.482544,433.271881 1058.386108,433.271881 1050.998169,433.271881 
	C1050.998169,387.650360 1050.998169,342.264923 1050.998169,296.519531 
	C1058.101562,296.519531 1065.175415,296.519531 1072.732300,296.519531 
	C1072.732300,303.266235 1072.732300,310.165985 1072.732300,316.903320 
	C1082.530640,310.149689 1092.072998,303.572510 1101.981689,296.854340 
z"/>
<path fill="#FFFEFE" opacity="1.000000" stroke="none" 
	d="
M549.067627,296.161743 
	C553.517029,296.161743 557.480103,296.161743 561.744019,296.161743 
	C561.744019,342.051483 561.744019,387.544769 561.744019,433.272583 
	C554.460693,433.272583 547.366821,433.272583 539.958008,433.272583 
	C539.958008,387.587738 539.958008,342.074432 539.958008,296.161743 
	C542.983459,296.161743 545.782410,296.161743 549.067627,296.161743 
z"/>
<path fill="#FFFEFE" opacity="1.000000" stroke="none" 
	d="
M1156.822266,338.999878 
	C1156.822266,324.554688 1156.822266,310.609467 1156.822266,296.416260 
	C1164.430786,296.416260 1171.505249,296.416260 1178.873779,296.416260 
	C1178.873779,342.028351 1178.873779,387.430573 1178.873779,433.170044 
	C1171.759766,433.170044 1164.681152,433.170044 1156.822266,433.170044 
	C1156.822266,401.945526 1156.822266,370.722717 1156.822266,338.999878 
z"/>
<path fill="#FFFAFC" opacity="1.000000" stroke="none" 
	d="
M564.957886,256.266479 
	C565.053223,256.825592 565.084839,256.989014 565.109436,257.153473 
	C565.939697,262.709290 566.570312,268.679871 561.547546,272.334290 
	C555.945618,276.410095 549.175293,275.838898 542.864929,273.682861 
	C538.145569,272.070404 535.707764,266.199524 536.378784,259.785675 
	C537.090454,252.983017 539.428223,249.828247 545.303162,248.966858 
	C548.857056,248.445786 552.562988,248.598587 556.167297,248.878479 
	C560.513916,249.216003 563.596069,251.528122 564.957886,256.266479 
z"/>
<path fill="#FFFAFC" opacity="1.000000" stroke="none" 
	d="
M1161.187256,274.160400 
	C1154.463623,270.673828 1152.359375,265.478394 1153.951904,257.162903 
	C1155.007568,251.650497 1157.895874,249.164688 1165.053589,248.506271 
	C1168.307861,248.206940 1171.731445,248.469055 1174.932129,249.156937 
	C1180.274902,250.305237 1182.758789,254.509552 1182.833740,261.437378 
	C1182.909058,268.393433 1180.581787,272.955597 1175.338135,273.891174 
	C1170.872070,274.688049 1166.174683,274.189178 1161.187256,274.160400 
z"/>
<path fill="#FE024E" opacity="1.000000" stroke="none" 
	d="
M146.728180,327.410583 
	C138.464340,319.389740 135.408737,309.997284 139.036453,299.433289 
	C143.223907,287.239319 152.880524,280.850677 165.222717,279.222534 
	C178.800034,277.431458 190.761658,281.189545 198.882507,293.007019 
	C206.364624,303.894928 205.098633,316.983429 195.574844,326.135925 
	C192.646378,328.950226 192.580185,331.459534 193.363693,334.856781 
	C196.719330,349.406769 199.942398,363.987305 203.291199,378.901459 
	C181.457031,378.901459 160.047516,378.901459 138.032303,378.901459 
	C140.540359,367.648163 143.011337,356.564178 145.480804,345.479828 
	C146.456192,341.101746 147.619705,336.752075 148.292770,332.327881 
	C148.513657,330.875854 147.458466,329.229706 146.728180,327.410583 
z"/>
<path fill="#FE024E" opacity="1.000000" stroke="none" 
	d="
M978.934082,342.992126 
	C972.214233,348.062744 964.608765,349.402496 956.944153,349.670593 
	C945.485107,350.071472 934.001587,349.774750 922.187439,349.774750 
	C922.187439,324.823547 922.187439,299.776398 922.187439,273.288757 
	C937.262512,274.281158 952.262024,274.361603 966.961914,276.500580 
	C980.671204,278.495453 988.095520,288.466522 989.114563,301.848358 
	C989.823730,311.160797 989.020325,320.799286 987.306396,329.996521 
	C986.447693,334.604767 982.043701,338.552307 978.934082,342.992126 
z"/>
</svg>