<svg version="1.1" id="Camada_1" xmlns="http://www.w3.org/2000/svg" x="0" y="0" viewBox="0 0 226.1 841.9" xml:space="preserve"><style>.st0{fill:#fff}</style><path class="st0" d="M86.4 148.2V77.9c0-8 8.8-12.9 15.6-8.7l57.3 35.1c6.5 4 6.5 13.5 0 17.5L102 156.9c-6.8 4.2-15.6-.7-15.6-8.7z"/><path class="st0" d="M113.1 226.1C50.7 226.1 0 175.4 0 113.1S50.7 0 113.1 0c62.3 0 113.1 50.7 113.1 113.1s-50.8 113-113.1 113zm0-211.1C59 15 15 59 15 113.1s44 98.1 98.1 98.1 98.1-44 98.1-98.1S167.1 15 113.1 15zM113.1 841.9C50.7 841.9 0 791.2 0 728.8s50.7-113.1 113.1-113.1c62.3 0 113.1 50.7 113.1 113.1s-50.8 113.1-113.1 113.1zm0-211.1c-54.1 0-98.1 44-98.1 98.1S59 827 113.1 827s98.1-44 98.1-98.1-44.1-98.1-98.1-98.1z"/><path class="st0" d="M138.6 718.1h-3.8v-24.9c0-5.4-4.4-9.8-9.8-9.8h-23.8c-5.4 0-9.8 4.4-9.8 9.8v24.9h-3.8c-2.3 0-4.2 1.9-4.2 4.2v47.9c0 2.3 1.9 4.2 4.2 4.2h51c2.3 0 4.2-1.9 4.2-4.2v-47.9c-.1-2.3-1.9-4.2-4.2-4.2zm-19.5 36.3c.5 1.1-.4 2.4-1.6 2.4H108c-1.2 0-2.1-1.2-1.6-2.4l3.4-8.5c-2.1-1.2-3.5-3.4-3.5-5.9 0-3.7 3-6.8 6.8-6.8 3.7 0 6.8 3 6.8 6.8 0 2.8-1.6 5.1-4 6.2l3.2 8.2zm7.5-36.3H99.5v-20.8c0-3 2.4-5.5 5.5-5.5h16.3c3 0 5.5 2.4 5.5 5.5v20.8z"/></svg>