<?xml version="1.0" encoding="utf-8"?>
<!-- Generator: Adobe Illustrator 25.0.0, SVG Export Plug-In . SVG Version: 6.00 Build 0)  -->
<svg version="1.1" id="Layer_1" xmlns="http://www.w3.org/2000/svg" xmlns:xlink="http://www.w3.org/1999/xlink" x="0px" y="0px"
	 viewBox="0 0 486 486" style="enable-background:new 0 0 486 486;" xml:space="preserve">
<style type="text/css">
	.st0{fill:#55CF61;}
</style>
<g id="Layer_2_1_">
	<g id="Layer_1-2">
		<path id="WhatsApp" class="st0" d="M486,236.8c0,130.7-106.8,236.7-238.6,236.7c-40.3,0.1-80-10.1-115.3-29.5L0,486l43.1-127
			C20.6,322.2,8.8,279.9,8.8,236.7C8.8,106,115.6,0,247.4,0S486,106,486,236.8z M247.4,37.7C136.8,37.7,46.8,127,46.8,236.8
			c0,42,13.3,82.9,38.2,116.7l-25,73.9l77.1-24.5c32.8,21.5,71.1,33,110.4,32.9c110.6,0,200.6-89.3,200.6-199S358,37.7,247.4,37.7z
			 M367.9,291.3c-1.5-2.4-5.4-3.9-11.2-6.8s-34.6-16.9-40-18.9s-9.3-2.9-13.2,2.9s-15.1,18.9-18.5,22.7s-6.8,4.4-12.7,1.5
			s-24.7-9-47-28.8c-17.4-15.4-29.1-34.4-32.5-40.2s-0.4-9,2.6-11.8c2.6-2.6,5.9-6.8,8.8-10.2s3.9-5.8,5.8-9.7s1-7.3-0.5-10.2
			s-13.2-31.4-18-43.1s-9.7-9.7-13.1-9.7s-7.3-0.5-11.2-0.5c-6,0.1-11.6,2.8-15.6,7.2c-5.4,5.8-20.5,19.9-20.5,48.4
			s20.9,56.1,23.9,60s40.4,64.4,99.9,87.6s59.5,15.5,70.2,14.5s34.6-14,39.5-27.6S369.4,293.7,367.9,291.3L367.9,291.3z"/>
	</g>
</g>
</svg>
