<svg xmlns="http://www.w3.org/2000/svg" xmlns:xlink="http://www.w3.org/1999/xlink" width="246" zoomAndPan="magnify" viewBox="0 0 184.5 67.499998" height="90" preserveAspectRatio="xMidYMid meet" version="1.0"><defs><g/><clipPath id="cf59e95314"><path d="M 0.429688 36.28125 L 15.496094 36.28125 L 15.496094 44.027344 L 0.429688 44.027344 Z M 0.429688 36.28125 " clip-rule="nonzero"/></clipPath><clipPath id="603689ef6b"><path d="M 1.917969 36.28125 L 13.980469 36.28125 C 14.804688 36.28125 15.472656 36.949219 15.472656 37.769531 L 15.472656 42.539062 C 15.472656 43.359375 14.804688 44.027344 13.980469 44.027344 L 1.917969 44.027344 C 1.097656 44.027344 0.429688 43.359375 0.429688 42.539062 L 0.429688 37.769531 C 0.429688 36.949219 1.097656 36.28125 1.917969 36.28125 Z M 1.917969 36.28125 " clip-rule="nonzero"/></clipPath><clipPath id="0f837b2334"><path d="M 172.054688 40.15625 L 183.574219 40.15625 L 183.574219 51.671875 L 172.054688 51.671875 Z M 172.054688 40.15625 " clip-rule="nonzero"/></clipPath><clipPath id="31ae1f6141"><path d="M 177.8125 40.15625 C 174.632812 40.15625 172.054688 42.734375 172.054688 45.914062 C 172.054688 49.09375 174.632812 51.671875 177.8125 51.671875 C 180.996094 51.671875 183.574219 49.09375 183.574219 45.914062 C 183.574219 42.734375 180.996094 40.15625 177.8125 40.15625 Z M 177.8125 40.15625 " clip-rule="nonzero"/></clipPath></defs><g fill="#f1efe7" fill-opacity="1"><g transform="translate(18.300499, 48.593305)"><g><path d="M 36.21875 -28.765625 L 22.546875 -15.03125 L 37.578125 0 L 24.78125 0 L 13.296875 -11.5 L 13.296875 0 L 3.359375 0 L 3.359375 -48.234375 L 13.296875 -48.234375 L 13.296875 -18.734375 L 23.328125 -28.765625 Z M 36.21875 -28.765625 "/></g></g></g><g fill="#f1efe7" fill-opacity="1"><g transform="translate(49.245049, 48.593305)"><g><path d="M 6.078125 -3.421875 C 2.890625 -6.265625 1.296875 -9.910156 1.296875 -14.359375 C 1.296875 -18.804688 2.957031 -22.457031 6.28125 -25.3125 C 9.601562 -28.175781 13.71875 -29.609375 18.625 -29.609375 C 23.445312 -29.609375 27.507812 -28.164062 30.8125 -25.28125 C 34.125 -22.40625 35.78125 -18.757812 35.78125 -14.34375 C 35.78125 -9.9375 34.160156 -6.300781 30.921875 -3.4375 C 27.691406 -0.582031 23.59375 0.84375 18.625 0.84375 C 13.457031 0.84375 9.273438 -0.578125 6.078125 -3.421875 Z M 13.765625 -19.234375 C 12.472656 -17.960938 11.828125 -16.335938 11.828125 -14.359375 C 11.828125 -12.378906 12.441406 -10.757812 13.671875 -9.5 C 14.910156 -8.25 16.539062 -7.625 18.5625 -7.625 C 20.507812 -7.625 22.109375 -8.257812 23.359375 -9.53125 C 24.609375 -10.800781 25.234375 -12.410156 25.234375 -14.359375 C 25.234375 -16.335938 24.585938 -17.960938 23.296875 -19.234375 C 22.003906 -20.503906 20.425781 -21.140625 18.5625 -21.140625 C 16.65625 -21.140625 15.054688 -20.503906 13.765625 -19.234375 Z M 13.765625 -19.234375 "/></g></g></g><g fill="#f1efe7" fill-opacity="1"><g transform="translate(81.030526, 48.593305)"><g><path d="M 3.359375 0 L 3.359375 -28.765625 L 13.296875 -28.765625 L 13.296875 -25.734375 L 13.40625 -25.734375 C 15.976562 -28.316406 18.722656 -29.609375 21.640625 -29.609375 C 23.066406 -29.609375 24.476562 -29.421875 25.875 -29.046875 C 27.28125 -28.671875 28.628906 -28.085938 29.921875 -27.296875 C 31.210938 -26.515625 32.257812 -25.40625 33.0625 -23.96875 C 33.863281 -22.53125 34.265625 -20.859375 34.265625 -18.953125 L 34.265625 0 L 24.34375 0 L 24.34375 -16.265625 C 24.34375 -17.753906 23.863281 -19.0625 22.90625 -20.1875 C 21.957031 -21.3125 20.710938 -21.875 19.171875 -21.875 C 17.679688 -21.875 16.328125 -21.289062 15.109375 -20.125 C 13.898438 -18.96875 13.296875 -17.679688 13.296875 -16.265625 L 13.296875 0 Z M 3.359375 0 "/></g></g></g><g fill="#f1efe7" fill-opacity="1"><g transform="translate(112.816003, 48.593305)"><g><path d="M 4.3125 -44.796875 C 5.476562 -45.960938 6.863281 -46.546875 8.46875 -46.546875 C 10.070312 -46.546875 11.453125 -45.960938 12.609375 -44.796875 C 13.773438 -43.640625 14.359375 -42.257812 14.359375 -40.65625 C 14.359375 -39.050781 13.773438 -37.664062 12.609375 -36.5 C 11.453125 -35.34375 10.070312 -34.765625 8.46875 -34.765625 C 6.863281 -34.765625 5.476562 -35.34375 4.3125 -36.5 C 3.15625 -37.664062 2.578125 -39.050781 2.578125 -40.65625 C 2.578125 -42.257812 3.15625 -43.640625 4.3125 -44.796875 Z M 3.359375 -28.765625 L 3.359375 0 L 13.296875 0 L 13.296875 -28.765625 Z M 3.359375 -28.765625 "/></g></g></g><g fill="#f1efe7" fill-opacity="1"><g transform="translate(124.475316, 48.593305)"><g><path d="M 3.359375 0 L 3.359375 -48.234375 L 13.296875 -48.234375 L 13.296875 -25.734375 L 13.40625 -25.734375 C 15.976562 -28.316406 18.722656 -29.609375 21.640625 -29.609375 C 23.066406 -29.609375 24.476562 -29.421875 25.875 -29.046875 C 27.28125 -28.671875 28.628906 -28.085938 29.921875 -27.296875 C 31.210938 -26.515625 32.257812 -25.40625 33.0625 -23.96875 C 33.863281 -22.53125 34.265625 -20.859375 34.265625 -18.953125 L 34.265625 0 L 24.34375 0 L 24.34375 -16.265625 C 24.34375 -17.753906 23.863281 -19.0625 22.90625 -20.1875 C 21.957031 -21.3125 20.710938 -21.875 19.171875 -21.875 C 17.679688 -21.875 16.328125 -21.289062 15.109375 -20.125 C 13.898438 -18.96875 13.296875 -17.679688 13.296875 -16.265625 L 13.296875 0 Z M 3.359375 0 "/></g></g></g><g fill="#f1efe7" fill-opacity="1"><g transform="translate(156.260788, 48.593305)"><g><path d="M 4.3125 -44.796875 C 5.476562 -45.960938 6.863281 -46.546875 8.46875 -46.546875 C 10.070312 -46.546875 11.453125 -45.960938 12.609375 -44.796875 C 13.773438 -43.640625 14.359375 -42.257812 14.359375 -40.65625 C 14.359375 -39.050781 13.773438 -37.664062 12.609375 -36.5 C 11.453125 -35.34375 10.070312 -34.765625 8.46875 -34.765625 C 6.863281 -34.765625 5.476562 -35.34375 4.3125 -36.5 C 3.15625 -37.664062 2.578125 -39.050781 2.578125 -40.65625 C 2.578125 -42.257812 3.15625 -43.640625 4.3125 -44.796875 Z M 3.359375 -28.765625 L 3.359375 0 L 13.296875 0 L 13.296875 -28.765625 Z M 3.359375 -28.765625 "/></g></g></g><g fill="#f1efe7" fill-opacity="1"><g transform="translate(28.132651, 62.254016)"><g><path d="M 6.328125 -0.625 C 6.347656 -0.570312 6.359375 -0.507812 6.359375 -0.4375 C 6.359375 -0.300781 6.3125 -0.1875 6.21875 -0.09375 C 6.125 -0.0078125 6.019531 0.03125 5.90625 0.03125 C 5.800781 0.03125 5.707031 0.00390625 5.625 -0.046875 C 5.550781 -0.109375 5.492188 -0.191406 5.453125 -0.296875 L 4.8125 -1.796875 L 1.671875 -1.796875 L 1.046875 -0.28125 C 1.015625 -0.175781 0.957031 -0.0976562 0.875 -0.046875 C 0.800781 0.00390625 0.71875 0.03125 0.625 0.03125 C 0.476562 0.03125 0.367188 -0.00390625 0.296875 -0.078125 C 0.222656 -0.148438 0.1875 -0.253906 0.1875 -0.390625 C 0.1875 -0.410156 0.191406 -0.460938 0.203125 -0.546875 L 2.796875 -6.84375 C 2.847656 -6.957031 2.914062 -7.039062 3 -7.09375 C 3.082031 -7.15625 3.179688 -7.175781 3.296875 -7.15625 C 3.390625 -7.15625 3.476562 -7.128906 3.5625 -7.078125 C 3.644531 -7.023438 3.703125 -6.945312 3.734375 -6.84375 Z M 2.0625 -2.71875 L 4.4375 -2.71875 L 3.234375 -5.578125 Z M 2.0625 -2.71875 "/></g></g></g><g fill="#f1efe7" fill-opacity="1"><g transform="translate(41.3099, 62.254016)"><g><path d="M 3.84375 -7.125 C 4.476562 -7.125 5.019531 -6.960938 5.46875 -6.640625 C 5.925781 -6.328125 6.269531 -5.898438 6.5 -5.359375 C 6.738281 -4.816406 6.859375 -4.21875 6.859375 -3.5625 C 6.859375 -2.894531 6.738281 -2.289062 6.5 -1.75 C 6.269531 -1.21875 5.925781 -0.789062 5.46875 -0.46875 C 5.019531 -0.15625 4.476562 0 3.84375 0 L 1.328125 0 C 1.191406 0 1.078125 -0.046875 0.984375 -0.140625 C 0.890625 -0.234375 0.84375 -0.347656 0.84375 -0.484375 L 0.84375 -6.640625 C 0.84375 -6.773438 0.890625 -6.890625 0.984375 -6.984375 C 1.078125 -7.078125 1.191406 -7.125 1.328125 -7.125 Z M 3.734375 -0.9375 C 4.429688 -0.9375 4.953125 -1.179688 5.296875 -1.671875 C 5.640625 -2.171875 5.8125 -2.800781 5.8125 -3.5625 C 5.8125 -4.320312 5.632812 -4.945312 5.28125 -5.4375 C 4.9375 -5.9375 4.421875 -6.1875 3.734375 -6.1875 L 1.859375 -6.1875 L 1.859375 -0.9375 Z M 3.734375 -0.9375 "/></g></g></g><g fill="#f1efe7" fill-opacity="1"><g transform="translate(55.250311, 62.254016)"><g><path d="M 6.03125 -7.140625 C 6.164062 -7.140625 6.28125 -7.09375 6.375 -7 C 6.476562 -6.914062 6.53125 -6.8125 6.53125 -6.6875 C 6.53125 -6.613281 6.515625 -6.535156 6.484375 -6.453125 L 3.875 -0.3125 C 3.832031 -0.207031 3.765625 -0.128906 3.671875 -0.078125 C 3.585938 -0.0234375 3.5 0 3.40625 0 C 3.3125 -0.0078125 3.222656 -0.0351562 3.140625 -0.078125 C 3.066406 -0.128906 3.007812 -0.207031 2.96875 -0.3125 L 0.359375 -6.453125 C 0.335938 -6.515625 0.328125 -6.585938 0.328125 -6.671875 C 0.328125 -6.816406 0.375 -6.929688 0.46875 -7.015625 C 0.570312 -7.109375 0.6875 -7.15625 0.8125 -7.15625 C 1.019531 -7.15625 1.171875 -7.046875 1.265625 -6.828125 L 3.484375 -1.578125 L 5.578125 -6.828125 C 5.628906 -6.929688 5.691406 -7.007812 5.765625 -7.0625 C 5.847656 -7.113281 5.9375 -7.140625 6.03125 -7.140625 Z M 6.03125 -7.140625 "/></g></g></g><g fill="#f1efe7" fill-opacity="1"><g transform="translate(68.732826, 62.254016)"><g><path d="M 4.875 -0.9375 C 5.019531 -0.9375 5.140625 -0.890625 5.234375 -0.796875 C 5.328125 -0.703125 5.375 -0.585938 5.375 -0.453125 C 5.375 -0.316406 5.328125 -0.207031 5.234375 -0.125 C 5.140625 -0.0390625 5.019531 0 4.875 0 L 1.328125 0 C 1.191406 0 1.078125 -0.046875 0.984375 -0.140625 C 0.890625 -0.234375 0.84375 -0.347656 0.84375 -0.484375 L 0.84375 -6.640625 C 0.84375 -6.773438 0.890625 -6.890625 0.984375 -6.984375 C 1.078125 -7.078125 1.191406 -7.125 1.328125 -7.125 L 4.875 -7.125 C 5.019531 -7.125 5.140625 -7.078125 5.234375 -6.984375 C 5.328125 -6.898438 5.375 -6.789062 5.375 -6.65625 C 5.375 -6.519531 5.328125 -6.40625 5.234375 -6.3125 C 5.140625 -6.226562 5.019531 -6.1875 4.875 -6.1875 L 1.859375 -6.1875 L 1.859375 -4.109375 L 4.421875 -4.109375 C 4.566406 -4.109375 4.679688 -4.0625 4.765625 -3.96875 C 4.859375 -3.882812 4.90625 -3.773438 4.90625 -3.640625 C 4.90625 -3.503906 4.859375 -3.394531 4.765625 -3.3125 C 4.679688 -3.226562 4.566406 -3.1875 4.421875 -3.1875 L 1.859375 -3.1875 L 1.859375 -0.9375 Z M 4.875 -0.9375 "/></g></g></g><g fill="#f1efe7" fill-opacity="1"><g transform="translate(81.177442, 62.254016)"><g><path d="M 6.28125 -0.8125 C 6.34375 -0.769531 6.394531 -0.710938 6.4375 -0.640625 C 6.476562 -0.566406 6.5 -0.492188 6.5 -0.421875 C 6.5 -0.273438 6.453125 -0.164062 6.359375 -0.09375 C 6.265625 -0.03125 6.15625 0 6.03125 0 C 5.90625 0 5.796875 -0.0234375 5.703125 -0.078125 C 5.503906 -0.191406 5.335938 -0.378906 5.203125 -0.640625 C 5.078125 -0.898438 5.015625 -1.28125 5.015625 -1.78125 C 5.015625 -2.125 4.910156 -2.375 4.703125 -2.53125 C 4.503906 -2.695312 4.238281 -2.78125 3.90625 -2.78125 L 1.859375 -2.78125 L 1.859375 -0.484375 C 1.859375 -0.347656 1.816406 -0.234375 1.734375 -0.140625 C 1.648438 -0.046875 1.546875 0 1.421875 0 C 1.265625 0 1.128906 -0.046875 1.015625 -0.140625 C 0.898438 -0.234375 0.84375 -0.347656 0.84375 -0.484375 L 0.84375 -6.640625 C 0.84375 -6.773438 0.890625 -6.890625 0.984375 -6.984375 C 1.078125 -7.078125 1.191406 -7.125 1.328125 -7.125 L 4.203125 -7.125 C 4.566406 -7.125 4.898438 -7.035156 5.203125 -6.859375 C 5.515625 -6.679688 5.757812 -6.429688 5.9375 -6.109375 C 6.125 -5.796875 6.21875 -5.441406 6.21875 -5.046875 C 6.21875 -4.671875 6.113281 -4.316406 5.90625 -3.984375 C 5.707031 -3.660156 5.445312 -3.414062 5.125 -3.25 C 5.375 -3.125 5.570312 -2.941406 5.71875 -2.703125 C 5.863281 -2.472656 5.941406 -2.207031 5.953125 -1.90625 C 5.984375 -1.519531 6.015625 -1.253906 6.046875 -1.109375 C 6.085938 -0.972656 6.164062 -0.875 6.28125 -0.8125 Z M 4.171875 -3.625 C 4.347656 -3.632812 4.507812 -3.703125 4.65625 -3.828125 C 4.8125 -3.953125 4.9375 -4.117188 5.03125 -4.328125 C 5.125 -4.535156 5.171875 -4.765625 5.171875 -5.015625 C 5.171875 -5.347656 5.070312 -5.625 4.875 -5.84375 C 4.675781 -6.070312 4.429688 -6.1875 4.140625 -6.1875 L 1.859375 -6.1875 L 1.859375 -3.625 Z M 4.171875 -3.625 "/></g></g></g><g fill="#f1efe7" fill-opacity="1"><g transform="translate(94.741361, 62.254016)"><g><path d="M 5.46875 -7.125 C 5.613281 -7.125 5.726562 -7.082031 5.8125 -7 C 5.90625 -6.914062 5.953125 -6.800781 5.953125 -6.65625 C 5.953125 -6.519531 5.90625 -6.410156 5.8125 -6.328125 C 5.726562 -6.242188 5.613281 -6.203125 5.46875 -6.203125 L 3.65625 -6.203125 L 3.65625 -0.484375 C 3.65625 -0.347656 3.601562 -0.234375 3.5 -0.140625 C 3.40625 -0.046875 3.285156 0 3.140625 0 C 2.984375 0 2.859375 -0.046875 2.765625 -0.140625 C 2.671875 -0.234375 2.625 -0.347656 2.625 -0.484375 L 2.625 -6.203125 L 0.8125 -6.203125 C 0.664062 -6.203125 0.546875 -6.242188 0.453125 -6.328125 C 0.367188 -6.410156 0.328125 -6.523438 0.328125 -6.671875 C 0.328125 -6.804688 0.367188 -6.914062 0.453125 -7 C 0.546875 -7.082031 0.664062 -7.125 0.8125 -7.125 Z M 5.46875 -7.125 "/></g></g></g><g fill="#f1efe7" fill-opacity="1"><g transform="translate(107.664222, 62.254016)"><g><path d="M 1.859375 -0.5 C 1.859375 -0.351562 1.804688 -0.234375 1.703125 -0.140625 C 1.597656 -0.046875 1.476562 0 1.34375 0 C 1.195312 0 1.078125 -0.046875 0.984375 -0.140625 C 0.890625 -0.234375 0.84375 -0.351562 0.84375 -0.5 L 0.84375 -6.640625 C 0.84375 -6.773438 0.890625 -6.890625 0.984375 -6.984375 C 1.078125 -7.078125 1.203125 -7.125 1.359375 -7.125 C 1.492188 -7.125 1.609375 -7.078125 1.703125 -6.984375 C 1.804688 -6.890625 1.859375 -6.773438 1.859375 -6.640625 Z M 1.859375 -0.5 "/></g></g></g><g fill="#f1efe7" fill-opacity="1"><g transform="translate(117.005295, 62.254016)"><g><path d="M 3 0.109375 C 2.507812 0.109375 2.070312 0.0390625 1.6875 -0.09375 C 1.3125 -0.238281 0.945312 -0.46875 0.59375 -0.78125 C 0.457031 -0.90625 0.390625 -1.046875 0.390625 -1.203125 C 0.390625 -1.328125 0.4375 -1.4375 0.53125 -1.53125 C 0.625 -1.632812 0.734375 -1.6875 0.859375 -1.6875 C 0.984375 -1.6875 1.082031 -1.644531 1.15625 -1.5625 C 1.425781 -1.3125 1.707031 -1.125 2 -1 C 2.289062 -0.882812 2.617188 -0.828125 2.984375 -0.828125 C 3.410156 -0.828125 3.769531 -0.925781 4.0625 -1.125 C 4.363281 -1.320312 4.515625 -1.570312 4.515625 -1.875 C 4.503906 -2.226562 4.351562 -2.5 4.0625 -2.6875 C 3.78125 -2.882812 3.34375 -3.046875 2.75 -3.171875 C 2.050781 -3.316406 1.515625 -3.550781 1.140625 -3.875 C 0.765625 -4.207031 0.578125 -4.660156 0.578125 -5.234375 C 0.578125 -5.640625 0.679688 -5.992188 0.890625 -6.296875 C 1.097656 -6.597656 1.390625 -6.828125 1.765625 -6.984375 C 2.140625 -7.148438 2.5625 -7.234375 3.03125 -7.234375 C 3.445312 -7.234375 3.84375 -7.164062 4.21875 -7.03125 C 4.59375 -6.894531 4.894531 -6.710938 5.125 -6.484375 C 5.28125 -6.347656 5.359375 -6.203125 5.359375 -6.046875 C 5.359375 -5.929688 5.3125 -5.820312 5.21875 -5.71875 C 5.125 -5.625 5.015625 -5.578125 4.890625 -5.578125 C 4.796875 -5.578125 4.71875 -5.609375 4.65625 -5.671875 C 4.476562 -5.835938 4.234375 -5.984375 3.921875 -6.109375 C 3.609375 -6.234375 3.3125 -6.296875 3.03125 -6.296875 C 2.570312 -6.296875 2.207031 -6.203125 1.9375 -6.015625 C 1.664062 -5.828125 1.53125 -5.582031 1.53125 -5.28125 C 1.53125 -4.945312 1.664062 -4.691406 1.9375 -4.515625 C 2.207031 -4.335938 2.609375 -4.1875 3.140625 -4.0625 C 3.671875 -3.945312 4.101562 -3.8125 4.4375 -3.65625 C 4.769531 -3.5 5.023438 -3.28125 5.203125 -3 C 5.390625 -2.726562 5.484375 -2.367188 5.484375 -1.921875 C 5.484375 -1.523438 5.375 -1.171875 5.15625 -0.859375 C 4.9375 -0.554688 4.632812 -0.316406 4.25 -0.140625 C 3.875 0.0234375 3.457031 0.109375 3 0.109375 Z M 3 0.109375 "/></g></g></g><g fill="#f1efe7" fill-opacity="1"><g transform="translate(129.572013, 62.254016)"><g><path d="M 1.859375 -0.5 C 1.859375 -0.351562 1.804688 -0.234375 1.703125 -0.140625 C 1.597656 -0.046875 1.476562 0 1.34375 0 C 1.195312 0 1.078125 -0.046875 0.984375 -0.140625 C 0.890625 -0.234375 0.84375 -0.351562 0.84375 -0.5 L 0.84375 -6.640625 C 0.84375 -6.773438 0.890625 -6.890625 0.984375 -6.984375 C 1.078125 -7.078125 1.203125 -7.125 1.359375 -7.125 C 1.492188 -7.125 1.609375 -7.078125 1.703125 -6.984375 C 1.804688 -6.890625 1.859375 -6.773438 1.859375 -6.640625 Z M 1.859375 -0.5 "/></g></g></g><g fill="#f1efe7" fill-opacity="1"><g transform="translate(138.913086, 62.254016)"><g><path d="M 6.171875 -7.125 C 6.296875 -7.125 6.398438 -7.082031 6.484375 -7 C 6.566406 -6.914062 6.609375 -6.8125 6.609375 -6.6875 L 6.609375 -0.5 C 6.609375 -0.351562 6.5625 -0.234375 6.46875 -0.140625 C 6.382812 -0.046875 6.269531 0 6.125 0 C 6.050781 0 5.976562 -0.0078125 5.90625 -0.03125 C 5.832031 -0.0625 5.773438 -0.0976562 5.734375 -0.140625 L 1.734375 -5.359375 L 1.734375 -0.453125 C 1.734375 -0.316406 1.691406 -0.207031 1.609375 -0.125 C 1.523438 -0.0390625 1.414062 0 1.28125 0 C 1.15625 0 1.050781 -0.0390625 0.96875 -0.125 C 0.882812 -0.207031 0.84375 -0.316406 0.84375 -0.453125 L 0.84375 -6.640625 C 0.84375 -6.785156 0.890625 -6.898438 0.984375 -6.984375 C 1.078125 -7.078125 1.191406 -7.125 1.328125 -7.125 C 1.410156 -7.125 1.488281 -7.109375 1.5625 -7.078125 C 1.632812 -7.054688 1.691406 -7.015625 1.734375 -6.953125 L 5.71875 -1.734375 L 5.71875 -6.6875 C 5.71875 -6.8125 5.757812 -6.914062 5.84375 -7 C 5.9375 -7.082031 6.046875 -7.125 6.171875 -7.125 Z M 6.171875 -7.125 "/></g></g></g><g fill="#f1efe7" fill-opacity="1"><g transform="translate(153.006131, 62.254016)"><g><path d="M 6.078125 -3.75 C 6.210938 -3.75 6.328125 -3.703125 6.421875 -3.609375 C 6.515625 -3.515625 6.5625 -3.398438 6.5625 -3.265625 L 6.5625 -0.96875 C 6.5625 -0.78125 6.476562 -0.640625 6.3125 -0.546875 C 6 -0.335938 5.65625 -0.175781 5.28125 -0.0625 C 4.914062 0.0507812 4.535156 0.109375 4.140625 0.109375 C 3.460938 0.109375 2.835938 -0.0507812 2.265625 -0.375 C 1.703125 -0.707031 1.253906 -1.15625 0.921875 -1.71875 C 0.597656 -2.28125 0.4375 -2.894531 0.4375 -3.5625 C 0.4375 -4.238281 0.597656 -4.851562 0.921875 -5.40625 C 1.253906 -5.96875 1.703125 -6.410156 2.265625 -6.734375 C 2.835938 -7.066406 3.460938 -7.234375 4.140625 -7.234375 C 4.472656 -7.234375 4.796875 -7.195312 5.109375 -7.125 C 5.429688 -7.050781 5.71875 -6.9375 5.96875 -6.78125 C 6.050781 -6.738281 6.113281 -6.679688 6.15625 -6.609375 C 6.195312 -6.546875 6.21875 -6.472656 6.21875 -6.390625 C 6.21875 -6.253906 6.171875 -6.132812 6.078125 -6.03125 C 5.984375 -5.9375 5.875 -5.890625 5.75 -5.890625 C 5.644531 -5.890625 5.554688 -5.910156 5.484375 -5.953125 C 5.035156 -6.160156 4.585938 -6.265625 4.140625 -6.265625 C 3.648438 -6.265625 3.203125 -6.144531 2.796875 -5.90625 C 2.390625 -5.664062 2.066406 -5.335938 1.828125 -4.921875 C 1.597656 -4.515625 1.484375 -4.0625 1.484375 -3.5625 C 1.484375 -3.070312 1.597656 -2.617188 1.828125 -2.203125 C 2.066406 -1.796875 2.390625 -1.46875 2.796875 -1.21875 C 3.203125 -0.976562 3.648438 -0.859375 4.140625 -0.859375 C 4.367188 -0.859375 4.609375 -0.882812 4.859375 -0.9375 C 5.117188 -1 5.335938 -1.070312 5.515625 -1.15625 L 5.515625 -2.78125 L 4.28125 -2.78125 C 4.144531 -2.78125 4.03125 -2.828125 3.9375 -2.921875 C 3.84375 -3.015625 3.796875 -3.128906 3.796875 -3.265625 C 3.796875 -3.398438 3.84375 -3.515625 3.9375 -3.609375 C 4.03125 -3.703125 4.144531 -3.75 4.28125 -3.75 Z M 6.078125 -3.75 "/></g></g></g><g clip-path="url(#cf59e95314)"><g clip-path="url(#603689ef6b)"><path fill="#f1efe7" d="M 0.429688 36.28125 L 15.46875 36.28125 L 15.46875 44.027344 L 0.429688 44.027344 Z M 0.429688 36.28125 " fill-opacity="1" fill-rule="nonzero"/></g></g><g clip-path="url(#0f837b2334)"><g clip-path="url(#31ae1f6141)"><path fill="#f1efe7" d="M 172.054688 40.15625 L 183.574219 40.15625 L 183.574219 51.671875 L 172.054688 51.671875 Z M 172.054688 40.15625 " fill-opacity="1" fill-rule="nonzero"/></g></g></svg>