<svg version="1.1" id="Camada_1" xmlns="http://www.w3.org/2000/svg" x="0" y="0" viewBox="0 0 120 90" xml:space="preserve"><style>.st1{fill:#fff}.st16{fill:#f49b09}.st19{fill:#020203}.st20{fill:#4cb8a9}</style><linearGradient id="SVGID_1_" gradientUnits="userSpaceOnUse" x1="-158.643" y1="284.998" x2="-128.643" y2="284.998" gradientTransform="rotate(180 -64.322 150)"><stop offset="0" stop-color="#293a8a"/><stop offset="1" stop-color="#272659"/></linearGradient><path fill="url(#SVGID_1_)" d="M0 0h30v30H0z"/><path class="st1" d="M11.5 18.7h1.9l1.2-7.4h-1.9zM20.4 11.5zM18.5 14.3c-.7-.3-1.1-.6-1.1-.9 0-.3.4-.6 1.1-.6.6 0 1.1.1 1.4.3l.2.1.3-1.6c-1.8-.8-5 0-4.9 2.1 0 1.1 1 1.6 1.7 2 .7.4 1 .6 1 .9-.2 1.2-2.2.7-2.9.3l-.2-.1-.3 1.7c1.9.9 5.6.3 5.5-2.1-.2-.9-.7-1.6-1.8-2.1zM25.3 11.3c-.9.1-2.2-.3-2.5.6L20 18.7h2s.3-.9.4-1.1h2.5c.1.3.2 1.1.2 1.1h1.8l-1.6-7.4zm-2.4 4.8c.2-.4.8-2.1.8-2.1s.2-.4.2-.7c.1.6.4 1.9.6 2.8h-1.6zM9.9 11.3l-1.9 5-.2-1-.7-3.4c-.1-.5-.4-.6-.9-.6h-3v.1c.8.2 1.4.5 2 .8l1.7 6.4h2l3-7.4h-2z"/><path transform="rotate(-180 45 15.003)" class="st1" d="M30 0h30v30H30z"/><ellipse id="path5747-6_00000017496170446148543260000004230225194852136577_" cx="49.1" cy="15" rx="6.7" ry="6.6" fill="#f49623"/><ellipse id="circle5749_00000025418555571288894680000006664256107453455747_" cx="40.9" cy="15" rx="6.7" ry="6.6" fill="#d32027"/><path id="path5747_00000151545342538296461140000013011207921011282313_" d="M44.9 9.8c-1.6 1.3-2.5 3.1-2.5 5.2s.9 3.9 2.5 5.2c1.6-1.3 2.5-3.1 2.5-5.2.2-1.9-.8-3.9-2.5-5.2z" fill="#eb6126"/><path fill="#e52528" d="M90 30h30v30H90z"/><path id="path3004_00000167388187116556315280000002995824582091743624_" class="st1" d="M108.4 44.5c0-.5-.1-1-.5-1.6l-2.5-4.4c-.1-.4-.4-.7-.4-1l-.1.1c-.7 1-.7 2.5 0 3.5l2.1 3.5c.7 1 .7 2.5 0 3.5l-.1.1c-.1-.4-.3-.8-.4-1l-1.8-3.2-1.2-2.1c-.1-.4-.4-.7-.4-1l-.1.1c-.7 1-.7 2.3 0 3.5l2 3.5c.7 1 .7 2.5 0 3.5l-.1.1c-.1-.4-.3-.8-.4-1l-2.5-4.4c-.4-.7-.5-1.3-.5-1.9-2.8.7-4.6 2.2-4.6 3.9 0 2.5 3.7 4.4 8.1 4.4s8.1-1.9 8.1-4.4c-.1-1.5-1.9-3.1-4.7-3.7z"/><path fill="#346eb5" d="M60 0h30v30H60z"/><path id="path6589_00000049197410732430038560000006341486037481161134_" d="M71.9 4.9L67 15.7h4v9.6h12l1.8-2.1 1.8 2.1h2.9c.1-.4.1-.8.3-1.2h-2.6l-2.5-2.7-2.5 2.7H72.1v-8.4h10.2l2.5 2.7 2.5-2.7h2.6v-1.2H88V8.6l-2.1 5.7h-2.1l-2.2-5.8v5.8h-4.9l-.7-1.7h-3.8l-.7 1.7H69l3.8-8.4h3l3.7 8.3V5.9h3.7l1.8 5.2 1.8-5.2H90c0-.4-.1-.8-.3-1.2h-3.8l-1 2.7-1-2.7h-5.8v3.8l-1.4-3.6h-4.8zm2.4 3.4L73.1 11h2.2l-1-2.7zm5.2 7.5v1.9h-4.9V19h4.7v2h-4.7v1.3h4.9v1.9l3.9-4.2-3.9-4.2zm10.5.4L86.5 20l3.5 3.8v-1.7l-1.8-1.9 1.8-1.9v-2.1z" fill-rule="evenodd" clip-rule="evenodd" fill="#fff"/><path fill="#2c2b2a" d="M90 0h30v30H90z"/><path id="path36_00000088127458155326612900000006567110602615066274_" class="st1" d="M100.8 17.3c-.3.4-.6.6-1.1.8-.9.4-1.7.3-2.3-.2l-.1.1-1 1.5c.2.2.5.3.8.5 1.1.5 2.3.5 3.4-.1.8-.3 1.4-.9 1.9-1.6l-1.6-1zm-3.2-3.7c-.9.4-1.4 1.3-1.3 2.3l4-1.7c-.7-.8-1.6-1-2.7-.6M95 18.2l-.3-.6c-.5-1-.5-2.1-.1-3.2s1.2-2 2.3-2.5c1.3-.6 2.8-.5 4 .3.8.5 1.4 1.1 1.8 2.2.1.1.1.3.2.4L95 18.2z"/><path id="path40_00000117676489758849409190000014584626162870970509_" class="st1" d="M105.6 9.7V18l1.3.5-.8 1.7-1.4-.6c-.4-.1-.5-.3-.7-.6s-.3-.6-.3-1V9.7h1.9z"/><path id="path44_00000078030555801191645100000009400654902447459248_" d="M109 15.9c0-.7.3-1.3.8-1.8l-1.3-1.5c-.9.8-1.4 2-1.4 3.2s.6 2.5 1.4 3.2l1.3-1.5c-.5-.3-.8-.9-.8-1.6" fill="#41a6de"/><path id="path48_00000183239237747243606830000013254444856761403780_" d="M111.3 18.3c-.3 0-.5-.1-.8-.1l-.6 1.9c.4.2.9.2 1.4.2 2.1 0 3.9-1.5 4.3-3.5l-2-.4c-.2 1.1-1.1 1.9-2.3 1.9" fill="#e73727"/><path id="path52-0_00000098934874090815691140000003997926095858563968_" d="M111.3 11.5c-.5 0-.9.1-1.4.2l.6 1.9c.2-.1.5-.1.8-.1 1.2 0 2.1.8 2.3 1.9l2-.4c-.4-2-2.1-3.4-4.3-3.5" fill="#fbc70a"/><linearGradient id="SVGID_2_" gradientUnits="userSpaceOnUse" x1="0" y1="45" x2="30" y2="45"><stop offset="0" stop-color="#d5191f"/><stop offset="1" stop-color="#ac1919"/></linearGradient><path fill="url(#SVGID_2_)" d="M0 30h30v30H0z"/><path fill="#fde107" d="M30 30h30v30H30z"/><path id="path10057_00000007427808391165866570000011418801200239657397_" d="M33.3 41.1l4.9 3.2 5.9-3.9-2.5-1.6 3.1-2.1 6.8 4.5-11.1 7.4 2.5 1.6L56.8 41l-11.7-7.8-11.8 7.9zm23.4 7.8l-4.9-3.2-5.8 3.9 2.5 1.6-3.1 2.1-6.8-4.5 11.1-7.4-2.5-1.6L33.3 49 45 56.8l11.7-7.9zm0-12.3l-2.5 1.6-2.5-1.6 4.9-3.2v3.2h.1zM33.3 53.4l2.5-1.6 2.5 1.6-4.9 3.2v-3.2h-.1z" fill-rule="evenodd" clip-rule="evenodd" fill="#1e3d78"/><path fill="#2970a9" d="M60 30h30v30H60z"/><path id="path4763_00000179643163203123519770000015316706782061902495_" class="st1" d="M75.1 54.3h8.3L79 45.5h-8.5l4.6 8.8z"/><path id="path4765_00000171720144407905534340000004306251398934314126_" class="st16" d="M78.9 45.5l-8.5 8.8h-8.1l8.1-8.8h8.5z"/><path id="path4767_00000096055439636452560690000004630152207016820609_" class="st16" d="M87.7 35.7l-8.5 8.8H71l8.2-8.8h8.5z"/><path id="path4761_00000011021711243446294580000010347511588492343953_" class="st1" d="M71 44.5h8.2l-4.4-8.8h-8.2l4.4 8.8z"/><path class="st1" d="M0 60h30v30H0z"/><linearGradient id="path30_1_" gradientUnits="userSpaceOnUse" x1="1222.463" y1="1449.986" x2="1250.571" y2="1449.986" gradientTransform="matrix(.81 0 0 .81 -981.824 -1099.488)"><stop offset="0" stop-color="#e95b61"/><stop offset="1" stop-color="#c00b71"/></linearGradient><path id="path30_00000163032146710760225410000008560239221472711079_" d="M15.2 64.7c-3.5.1-6.5 2.3-7.7 5.5-1 .4-2 .8-2.9 1.2-.3.1-.3.3-.3.5.2.1.3.2.5.1.8-.3 1.4-.4 2.2-.5-.1.4-.1.8-.1 1.3-.1 2.9 1.4 5.6 3.8 7 .3.1.4.1.5 0 .1-.1.1-.4-.1-.5C9.7 78 8.8 75.9 8.8 74c0-1 .3-1.9.5-2.9.8-.1 1.6-.1 2.6-.1 6 0 11.3 1.9 11.3 4.7 0 1.3-1.7 2.6-3.7 3.5-.5.2-.5.4-.5.5.1.3.3.3.5.1 3.5-1.2 6.2-3 6.2-5.3 0-3.1-5-5.5-11.4-5.5-1.3 0-2.6.1-3.9.4 1.3-1.7 3.5-2.9 6-2.9 1.8 0 3.5.7 4.7 1.7.3.1.4.3.5 0 .1-.1.1-.4 0-.5-1.4-1.6-3.8-2.9-6.4-3zM16.9 78c-.2.1-1.7.9-1.7.9v6.4H17c.1 0 .3-.1.3-.3v-6.8c0-.2-.2-.3-.4-.2zm-2.2 1.3l-1.3.8c-.2.1-.3.1-.3.4V85c0 .1.1.3.3.3h1.3v-6z" fill="url(#path30_1_)"/><path fill="#ed7104" d="M30 60h30v30H30z"/><path class="st1" d="M60 60h30v30H60z"/><path id="rect5041_00000161619398525235968610000000836205617440357796_" class="st19" d="M63.5 67.7h.5v14.7h-.5z"/><path id="rect5043_00000163776572291762510290000017624355400213419196_" class="st19" d="M64.7 67.7H66v14.7h-1.3z"/><path id="rect5045_00000170980198824082592070000017426575940995168899_" class="st19" d="M66.4 67.7h1.3v14.7h-1.3z"/><path id="rect5047_00000127030434208465554220000011728106709093890467_" class="st19" d="M69.1 67.7h.7v14.7h-.7z"/><path id="rect5049_00000011746326970972584260000005220820570802416807_" class="st19" d="M70.2 67.7h.7v14.7h-.7z"/><path id="rect5051_00000019664872071297632320000017496826826299390368_" class="st19" d="M71.6 67.7h1.3v14.7h-1.3z"/><path id="rect5053_00000003819802145744856180000005478078163492923810_" class="st19" d="M73.4 67.7h1.3v14.7h-1.3z"/><path id="rect5055_00000104666059277085158390000001362998971752468404_" class="st19" d="M75.3 67.7h.7v14.7h-.7z"/><path id="rect5057_00000117647695553711602180000001223931785931762861_" class="st19" d="M77.2 67.7h.7v14.7h-.7z"/><path id="rect5059_00000095296181380073225790000015498337976212724611_" class="st19" d="M78.3 67.6h.4v14.8h-.4z"/><path id="rect5061_00000173866754580354400170000015964683618699627187_" class="st19" d="M77.2 67.7h.7v14.7h-.7z"/><path id="rect5063_00000108282413240823240770000015641153407443523988_" class="st19" d="M79.5 67.6h1.3v14.8h-1.3z"/><path id="rect5065_00000129894991143504956940000014654437348152219822_" class="st19" d="M81.3 67.6h.4v14.8h-.4z"/><path id="rect5067_00000165218186839858867190000010975212515174712249_" class="st19" d="M82.3 67.6h.4v14.8h-.4z"/><path id="rect5069_00000172428427019803234610000018446467468315382432_" class="st19" d="M84.3 67.6h.4v14.8h-.4z"/><path id="rect5071_00000149339525468324825940000003673313692114508450_" class="st19" d="M85.2 67.6h1.3v14.8h-1.3z"/><path class="st1" d="M90 60h30v30H90z"/><path class="st20" d="M98.5 81c.9 0 1.7-.4 2.3-1l3.4-3.4c.3-.3.7-.3.9 0l3.5 3.5c.7.7 1.4 1 2.3 1h.7l-4.4 4.4c-1.4 1.4-3.6 1.4-4.9 0l-4.4-4.4.6-.1zM111.1 68.9c-.9 0-1.7.4-2.3 1l-3.5 3.4c-.3.3-.7.3-.9 0l-3.4-3.4c-.7-.7-1.6-1-2.3-1h-.5l4.4-4.4c1.4-1.4 3.6-1.4 4.9 0l4.4 4.4h-.8z"/><path class="st20" d="M94.5 72.5l2.6-2.6h1.4c.7 0 1.2.3 1.7.7l3.4 3.4c.3.3.7.5 1.2.5.4 0 .8-.3 1.2-.5l3.5-3.5c.4-.4 1-.7 1.7-.7h1.7l2.6 2.6c1.4 1.4 1.4 3.6 0 4.9l-2.6 2.6h-1.7c-.7 0-1.2-.3-1.7-.7L106 76c-.7-.7-1.7-.7-2.3 0l-3.4 3.4c-.4.4-1 .7-1.7.7h-1.4l-2.6-2.6c-1.4-1.5-1.4-3.7-.1-5z"/><path d="M52.2 85.4H38c-1.8 0-3.3-1.5-3.3-3.3V67.9c0-1.8 1.5-3.3 3.3-3.3h14.1c1.8 0 3.3 1.5 3.3 3.3V82c.1 1.9-1.4 3.4-3.2 3.4z" fill-rule="evenodd" clip-rule="evenodd" fill="#1f3d8a"/><path d="M50.5 76.4h1.1L53 75h-1.5l-1 1.4zm-.4.4h-1.6v3c0 .8.2 1.4.6 1.8.4.3.8.5 1.4.5.8 0 1.4-.3 1.8-.9v.8h1.4v-5.2H52v3.3c-.2.4-.5.7-1 .7-.6 0-.9-.4-.9-1.3v-2.7zM46 78.5c-1.1 0-1.9.2-2.4.5-.6.3-.9.9-.9 1.5 0 .4.2.8.5 1.1.3.3.8.5 1.3.5.7 0 1.2-.2 1.6-.7v.5h1.5v-3c0-.7-.2-1.2-.5-1.6-.4-.4-1-.7-1.9-.7-.8 0-1.6.2-2.1.5l.3 1c.4-.3 1-.4 1.5-.4.7 0 1.1.3 1.1.8zm-3.9-1.7h-1V75h-1.6v1.8h-.7V78h.7v2c0 .7.1 1.2.4 1.5.3.3.7.5 1.3.5.3 0 .6 0 .9-.1v-1.2c-.1 0-.1.1-.3.1-.3 0-.4-.1-.6-.3-.1-.1-.1-.4-.1-.7V78h1v-1.2zm2.1 3.6c0-.6.6-.9 1.8-.9v.8c-.1.2-.2.4-.4.5-.2.2-.4.2-.7.2-.5.1-.7-.2-.7-.6zM36.4 75v6.9H38V75h-1.6z" fill-rule="evenodd" clip-rule="evenodd" fill="#ffec00"/><path class="st1" d="M7 39.6c-1.4.1-2.3.7-2.6 1.6-.1.3-.2.7-.2 1 0 .2-.1.3-.1.5-.3 1.3-.6 2.7-.8 4l-.1.4c-.2 1.1-.4 2.2-.6 3.2l-.1.4h19.9c1.3 0 2.8-.2 3.1-1.8l.3-1.5 1.6-7.9H7zm19.7.6l-1.5 7.4c-.1.4-.2.9-.3 1.3-.2.8-.7 1.3-2.5 1.3H3.3l.6-3 .1-.5c.3-1.3.5-2.6.8-3.8 0-.2.1-.4.1-.5v-.1c0-.3.1-.6.1-.9.2-.7.9-1.2 2-1.2h19.7z"/><path class="st1" d="M8.8 43.8c.1.1.2.1.3.1.1 0 .3 0 .3-.1.1-.1.2-.3.2-.5 0-.1 0-.3-.1-.4-.1-.1-.2-.1-.4-.1s-.3.1-.3.2c-.1.2-.2.6 0 .8zM4.8 46.6v.2h1l.1-.4c0-.4.1-.9.2-1.3h1.2c0 .2-.1.4-.1.5-.1.3-.1.7-.2 1v.2h1v-.2c.2-1.1.4-2.3.6-3.6v-.2h-1v.2c-.1.4-.1.9-.2 1.3H6.1c0-.2.1-.3.1-.5s.1-.5.1-.7l.1-.2h-1v.2c-.1.4-.1.7-.2 1.1-.1.8-.2 1.6-.4 2.4zM9.1 46.7c.1-1 .3-1.8.5-2.5l.1-.2H8.6v.1c-.1.9-.3 1.8-.4 2.5v.2h.9v-.1z"/><path class="st1" d="M9.6 43.9v.2c-.2 1.1-.4 2.2-.6 3.7v.2h.9v-.2c0-.1 0-.3.1-.5 0-.2.1-.4.1-.6h.1c.4.2.9 0 1.2-.1.2-.1.5-.4.6-.7 0 .3.2.5.4.7.5.4 1.4.2 1.9.1h.1v-.1-.2-.2l.1-.3-.4.1c-.5.2-.9.2-1.1.1-.1-.1-.2-.3-.1-.6h1.8c0 .3-.1.5-.1.8l-.1.6h.9v-.2c0-.1 0-.3.1-.5 0-.4.1-.8.2-1.1.1-.2.2-.3.3-.4.1 0 .2-.1.3 0-.2.5-.3 1.1-.2 1.6.1.2.2.4.5.6.4.2.9.2 1.5 0h.1v-.1-.2c.1.2.2.3.4.4.4.2.9.1 1.2-.1v.1h1.8v-.2c0-.2 0-.4.1-.6v-.3c.1-.4.2-.9.4-1.1.1-.1.2-.1.4 0-.2.3-.3.8-.3 1.2 0 .3.1.6.2.7.3.3 1 .4 1.5.2v.1h.9v-.2c.1-.9.2-1.8.4-2.6.1-.3.1-.7.2-1V43h-.9v.2c0 .3-.1.6-.1.9-.7-.1-1.1.1-1.4.3l-.1.1.1-.2-.4-.3c-.3-.1-.5-.1-.7 0H21v.2c-.1.9-.3 1.7-.5 2.5v.2-.1c0-.4.1-.7.1-1.1v-.1c0-.1 0-.2.1-.3.1-.2.1-.5.1-.7 0-.2-.1-.3-.2-.4-.3-.3-.9-.2-1.4-.2H18.6v.2c0 .1 0 .2-.1.3l-.1.5.3-.1c.8-.2 1-.1 1.1-.1v.1c-1-.1-1.6.2-1.8.8 0 .1 0 .2-.1.3h-.1c-.2.1-.6.2-.8.1-.1 0-.1-.1-.2-.1v-.4c0-.3.2-.7.3-.9.2-.2.7-.2 1 0l.2.1v-.3-.2-.4h-.2c-.7-.1-1.4 0-1.7.2v-.2l-.1-.1c-.3-.1-.5-.1-.8 0h-.9v.2c0 .3-.1.5-.1.8v-.5c-.1-.4-.6-.6-1.2-.5-.5 0-.8.2-1.1.4-.1.1-.2.2-.3.4-.1-.4-.3-.6-.6-.8-.4-.1-.8-.1-1 0v-.1h-.7zm14 .7h.4c0 .1 0 .2-.1.4-.1.7-.2 1.2-.7 1.2-.2 0-.3 0-.3-.4.1-.5.3-1.1.7-1.2zm-3.9.9c0 .2-.1.4-.2.5-.1.1-.4.2-.5.1 0 0-.1-.1-.1-.2 0-.3.4-.4.7-.4h.1zm-8.8.6c-.1.1-.3.2-.5.1-.1 0-.2-.1-.2-.2s0-.3.1-.4v-.5c0-.1 0-.2.1-.3.1-.1.4-.2.6-.1.2.1.2.2.2.2 0 .4-.1.9-.3 1.2zm2.1-1.3c.1-.1.2-.2.4-.2s.3 0 .3.1v.1H13z"/></svg>