<svg xmlns="http://www.w3.org/2000/svg" xmlns:xlink="http://www.w3.org/1999/xlink" width="1440" zoomAndPan="magnify" viewBox="0 0 1080 299.999988" height="400" preserveAspectRatio="xMidYMid meet" version="1.0"><defs><g/><clipPath id="0cc3f2ac9e"><path d="M 60.316406 194.597656 L 129.148438 194.597656 L 129.148438 294.226562 L 60.316406 294.226562 Z M 60.316406 194.597656 " clip-rule="nonzero"/></clipPath><clipPath id="6707f745c2"><path d="M 110.746094 175.199219 L 185.375 175.199219 L 185.375 294.226562 L 110.746094 294.226562 Z M 110.746094 175.199219 " clip-rule="nonzero"/></clipPath><clipPath id="d709ff0dbd"><path d="M 0 31.925781 L 209.570312 31.925781 L 209.570312 294.226562 L 0 294.226562 Z M 0 31.925781 " clip-rule="nonzero"/></clipPath><clipPath id="bae380227a"><path d="M 195.597656 181.324219 L 303.273438 181.324219 L 303.273438 294.226562 L 195.597656 294.226562 Z M 195.597656 181.324219 " clip-rule="nonzero"/></clipPath><clipPath id="6a40cb1d8f"><path d="M 160.839844 96.925781 L 261.707031 96.925781 L 261.707031 294.226562 L 160.839844 294.226562 Z M 160.839844 96.925781 " clip-rule="nonzero"/></clipPath></defs><g fill="#28ffbb" fill-opacity="1"><g transform="translate(480.742431, 282.370179)"><g><path d="M 0 -131.59375 C 0 -108.042969 5.980469 -85.984375 17.570312 -65.796875 C 29.160156 -45.609375 45.234375 -29.535156 65.421875 -17.945312 C 85.613281 -5.980469 107.667969 0 131.222656 0 C 154.773438 0 176.832031 -5.980469 197.019531 -17.945312 C 217.207031 -29.535156 233.28125 -45.609375 245.246094 -65.796875 C 256.835938 -85.984375 262.816406 -108.042969 262.816406 -131.59375 C 262.816406 -155.148438 256.835938 -177.203125 245.246094 -197.019531 C 221.320312 -237.019531 179.074219 -261.695312 131.222656 -261.695312 C 107.296875 -261.695312 85.238281 -256.085938 65.421875 -244.496094 C 25.421875 -221.320312 0 -178.699219 0 -131.59375 Z M 13.085938 -131.96875 C 13.085938 -153.277344 18.320312 -172.71875 29.160156 -190.664062 C 50.46875 -226.554688 88.601562 -248.984375 131.59375 -248.984375 C 152.90625 -248.984375 172.34375 -243.75 190.664062 -233.28125 C 226.554688 -212.347656 249.730469 -174.214844 249.730469 -131.96875 C 249.730469 -110.660156 244.496094 -90.84375 233.65625 -72.902344 C 212.347656 -36.636719 173.839844 -13.457031 131.59375 -13.457031 C 110.285156 -13.457031 90.472656 -18.691406 72.527344 -29.535156 C 36.261719 -50.84375 13.085938 -88.976562 13.085938 -131.96875 Z M 13.085938 -131.96875 "/></g></g></g><g fill="#28ffbb" fill-opacity="1"><g transform="translate(693.82584, 282.370179)"><g><path d="M 197.019531 -261.695312 L 0 -261.695312 L 0 -250.851562 L 95.707031 -250.851562 L 95.707031 0 L 108.417969 0 L 108.417969 -250.851562 L 197.019531 -250.851562 Z M 197.019531 -261.695312 "/></g></g></g><g fill="#28ffbb" fill-opacity="1"><g transform="translate(841.114242, 282.370179)"><g><path d="M 106.171875 -261.695312 L 0 0 L 14.207031 0 L 106.171875 -229.542969 L 216.832031 0 L 230.664062 0 Z M 106.171875 -261.695312 "/></g></g></g><g fill="#28ffbb" fill-opacity="1"><g transform="translate(342.6527, 281.784426)"><g><path d="M 51.671875 1.46875 C 36.765625 1.46875 23.753906 -1.828125 12.640625 -8.421875 C 1.523438 -15.023438 -6.597656 -23.945312 -11.734375 -35.1875 L -1.828125 -42.140625 C 2.804688 -32.128906 9.890625 -24.25 19.421875 -18.5 C 28.953125 -12.757812 40.070312 -9.890625 52.78125 -9.890625 C 69.882812 -9.890625 83.503906 -14.710938 93.640625 -24.359375 C 103.773438 -34.015625 111.046875 -50.207031 115.453125 -72.9375 L 149.90625 -245.1875 L 54.609375 -245.1875 L 56.8125 -256.546875 L 164.5625 -256.546875 L 127.546875 -71.46875 C 122.410156 -45.320312 113.734375 -26.628906 101.515625 -15.390625 C 89.304688 -4.148438 72.691406 1.46875 51.671875 1.46875 Z M 51.671875 1.46875 "/></g></g></g><g clip-path="url(#0cc3f2ac9e)"><path fill="#ffffff" d="M 60.605469 294.226562 L 90.351562 294.226562 L 129.09375 194.820312 L 99.351562 194.820312 L 60.605469 294.226562 " fill-opacity="1" fill-rule="nonzero"/></g><g clip-path="url(#6707f745c2)"><path fill="#ffffff" d="M 110.761719 294.226562 L 140.507812 294.226562 L 185.363281 175.507812 L 155.621094 175.507812 L 110.761719 294.226562 " fill-opacity="1" fill-rule="nonzero"/></g><g clip-path="url(#d709ff0dbd)"><path fill="#28ffbb" d="M 93.203125 173.476562 L 151.636719 72.398438 L 195.9375 149.035156 L 209.324219 131.710938 L 151.636719 31.925781 L 0 294.226562 L 52.277344 294.226562 L 59.945312 274.554688 L 34.773438 274.554688 L 93.203125 173.476562 " fill-opacity="1" fill-rule="nonzero"/></g><g clip-path="url(#bae380227a)"><path fill="#ffffff" d="M 238.117188 181.515625 L 228.886719 206.03125 L 268.5 274.554688 L 203.097656 274.554688 L 195.695312 294.226562 L 303.273438 294.226562 L 238.117188 181.515625 " fill-opacity="1" fill-rule="nonzero"/></g><g clip-path="url(#6a40cb1d8f)"><path fill="#ffffff" d="M 242.214844 96.933594 L 192.007812 161.921875 L 213.050781 161.921875 L 160.917969 294.226562 L 190.664062 294.226562 L 240.160156 162.714844 L 261.65625 163.015625 L 242.214844 96.933594 " fill-opacity="1" fill-rule="nonzero"/></g></svg>