<svg xmlns="http://www.w3.org/2000/svg" viewBox="0 0 95.813 23"><path d="M14.759 5.043h4.182L11.439 23h-3.69L0 5.043h2.829a1.893 1.893 0 0 1 1.845 1.23l4.8 11.807zm23.246 14.513a2.27 2.27 0 0 1-2.337-2.583V8.241h5.658v-3.2h-5.658v-2.95A2 2 0 0 0 33.578 0h-1.845v5.043h-2.952v3.321h2.952v9.348A4.971 4.971 0 0 0 37.021 23a10.824 10.824 0 0 0 4.3-.738l.123-.123v-3.321l-.369.123a6.269 6.269 0 0 1-3.07.615zM49.2 7.011V5.043h-3.69V23h3.69V12.791c0-2.829 2.214-4.551 5.9-4.551h.246l.246-3.567h-.369c-2.581.001-4.672.739-6.023 2.338zm25.337 6.642a5.514 5.514 0 0 1-.123 1.476v.246H61.5c.369 2.829 1.968 4.428 4.551 4.428a6 6 0 0 0 4.674-2.337l.123-.246 3.075 1.6-.246.246A9.109 9.109 0 0 1 66.048 23c-5.166 0-8.733-3.69-8.733-9.1 0-5.535 3.444-9.225 8.61-9.225s8.61 3.566 8.61 8.977zm-4.059-1.23c-.369-2.952-1.968-4.551-4.551-4.551-2.46 0-4.182 1.722-4.428 4.551zm25.337 1.353c0 5.535-3.69 9.225-9.225 9.225s-9.225-3.69-9.225-9.225 3.69-9.225 9.225-9.225c5.533.123 9.223 3.813 9.223 9.224zm-9.227-5.658c-3.075 0-5.166 2.337-5.166 5.781s2.091 5.781 5.166 5.781 5.166-2.337 5.166-5.781-2.091-5.781-5.166-5.781zM23.738 0A2.419 2.419 0 0 0 21.4 2.337a2.337 2.337 0 1 0 4.674 0A2.335 2.335 0 0 0 23.738 0z" fill="#0052cc"/></svg>