<?xml version="1.0" encoding="utf-8"?>
<!-- Generator: Adobe Illustrator 23.1.1, SVG Export Plug-In . SVG Version: 6.00 Build 0)  -->
<svg version="1.1" id="Layer_1" xmlns="http://www.w3.org/2000/svg" xmlns:xlink="http://www.w3.org/1999/xlink" x="0px" y="0px"
	 viewBox="0 0 498.2 495.7" style="enable-background:new 0 0 498.2 495.7;" xml:space="preserve">
<style type="text/css">
	.st0{fill:#FFFFFF;}
</style>
<g>
	<path class="st0" d="M449.5,48.4h-345l-1.9-6.5C96.5,20.6,76.7,5.7,54.5,5.7H25.2C15.1,5.7,7,13.9,7,23.9c0,10,8.2,18.2,18.2,18.2
		h29.3c6.1,0,11.6,4.1,13.3,10L133.1,276l-31.6,39.4c-5.9,7.3-9.2,16.7-9.2,26.2c0,23.1,18.8,41.9,41.9,41.9h296.2
		c10,0,18.2-8.2,18.2-18.2s-8.2-18.2-18.2-18.2H134.2c-3,0-5.5-2.5-5.5-5.5c0-1.2,0.4-2.4,1.2-3.3l32.1-40.1h205.5
		c19.3,0,37.2-11.3,45.4-28.8l74.4-158.3c2.6-5.7,4-11.8,4-17.7v-3C491.3,67.3,472.5,48.4,449.5,48.4z M449.5,84.6
		c3,0,5.5,2.5,5.5,5.5v3.1c0,0.8-0.2,1.6-0.5,2.3l-74.4,158.2c-2.3,4.8-7.2,7.9-12.5,7.9H166.8l-51.6-177H449.5z"/>
	<path class="st0" d="M142.5,389.7c-27.7,0-50.2,22.5-50.2,50.2s22.5,50.2,50.2,50.2s50.2-22.5,50.2-50.2S170.2,389.7,142.5,389.7z
		 M142.5,426.1c7.6,0,13.8,6.2,13.8,13.8s-6.2,13.8-13.8,13.8s-13.8-6.2-13.8-13.8S134.9,426.1,142.5,426.1z"/>
	<path class="st0" d="M398.5,389.7c-27.7,0-50.2,22.5-50.2,50.2s22.5,50.2,50.2,50.2s50.2-22.5,50.2-50.2S426.2,389.7,398.5,389.7z
		 M398.5,426.1c7.6,0,13.8,6.2,13.8,13.8s-6.2,13.8-13.8,13.8s-13.8-6.2-13.8-13.8S390.9,426.1,398.5,426.1z"/>
</g>
</svg>
