<?xml version="1.0" encoding="utf-8"?>
<!-- Generator: Adobe Illustrator 24.1.0, SVG Export Plug-In . SVG Version: 6.00 Build 0)  -->
<svg version="1.1" id="Layer_1" xmlns="http://www.w3.org/2000/svg" xmlns:xlink="http://www.w3.org/1999/xlink" x="0px" y="0px"
	 viewBox="0 0 95.8 23" style="enable-background:new 0 0 95.8 23;" xml:space="preserve">
<style type="text/css">
	.st0{fill:#FFFFFF;}
</style>
<path class="st0" d="M14.8,5h4.2l-7.5,18H7.7L0,5h2.8c0.8,0,1.6,0.5,1.8,1.2l4.8,11.8L14.8,5z M38,19.6c-1.3,0-2.3-0.9-2.4-2.2
	c0-0.1,0-0.3,0-0.4V8.2h5.7V5h-5.7V2.1c0.1-1.1-0.8-2-1.9-2.1c-0.1,0-0.1,0-0.2,0h-1.8v5h-3v3.3h3v9.3c-0.2,2.7,1.9,5.1,4.6,5.3
	c0.2,0,0.4,0,0.7,0c1.5,0,2.9-0.2,4.3-0.7l0.1-0.1v-3.3l-0.4,0.1C40.1,19.4,39.1,19.6,38,19.6z M49.2,7V5h-3.7v18h3.7V12.8
	c0-2.8,2.2-4.6,5.9-4.6h0.2l0.2-3.6h-0.4C52.6,4.7,50.6,5.4,49.2,7z M74.5,13.7c0,0.5,0,1-0.1,1.5v0.2H61.5c0.4,2.8,2,4.4,4.6,4.4
	c1.8,0,3.6-0.9,4.7-2.3l0.1-0.2l3.1,1.6l-0.2,0.2c-1.7,2.5-4.6,4-7.6,3.9c-5.2,0-8.7-3.7-8.7-9.1c0-5.5,3.4-9.2,8.6-9.2
	S74.5,8.2,74.5,13.7L74.5,13.7z M70.5,12.4c-0.4-3-2-4.6-4.6-4.6c-2.5,0-4.2,1.7-4.4,4.6H70.5z M95.8,13.8c0,5.5-3.7,9.2-9.2,9.2
	s-9.2-3.7-9.2-9.2s3.7-9.2,9.2-9.2C92.1,4.7,95.8,8.4,95.8,13.8L95.8,13.8z M86.6,8.1c-3.1,0-5.2,2.3-5.2,5.8s2.1,5.8,5.2,5.8
	s5.2-2.3,5.2-5.8S89.7,8.1,86.6,8.1z M23.7,0c-1.3,0-2.3,1.1-2.3,2.3c0,1.3,1,2.3,2.3,2.3s2.3-1,2.3-2.3C26.1,1,25,0,23.7,0
	C23.7,0,23.7,0,23.7,0z"/>
</svg>
