<svg xmlns="http://www.w3.org/2000/svg" width="192.549" height="23" viewBox="0 0 192.549 23">
  <g id="logo-vitreo-wealth" transform="translate(-277 -29.696)">
    <path id="vitreo-logo" d="M13.969,4.7h3.988l-7.22,17H7.24L0,4.7H2.72A1.887,1.887,0,0,1,4.5,5.911L8.979,17.1ZM35.894,18.468a2.2,2.2,0,0,1-2.25-2.434V7.813h5.318V4.7H33.644V1.923A1.92,1.92,0,0,0,31.721,0H29.983V4.7H27.242V7.813h2.741v8.856A4.719,4.719,0,0,0,34.912,21.7a9.906,9.906,0,0,0,4.111-.757l.164-.082V17.793l-.389.164A7.807,7.807,0,0,1,35.894,18.468ZM46.406,6.606l-.041-1.9H42.827v17h3.661V12.087c0-2.638,2.147-4.275,5.6-4.275h.266L52.6,4.4H52.3A7.6,7.6,0,0,0,46.406,6.606Zm23.929,6.238a10.091,10.091,0,0,1-.061,1.37l-.041.245H58.043c.389,2.72,1.9,4.213,4.315,4.213a5.438,5.438,0,0,0,4.4-2.25l.143-.2,2.863,1.534-.184.266A8.4,8.4,0,0,1,62.4,21.679c-4.929,0-8.222-3.456-8.222-8.59,0-5.215,3.252-8.713,8.1-8.713C67.083,4.4,70.335,7.792,70.335,12.844ZM66.552,11.76C66.2,9,64.65,7.424,62.257,7.424,59.9,7.424,58.371,9,58.023,11.76ZM90.4,13.049c0,5.174-3.5,8.651-8.672,8.651-5.215,0-8.713-3.477-8.713-8.651S76.512,4.4,81.727,4.4C86.9,4.4,90.4,7.874,90.4,13.049Zm-8.672-5.4c-2.945,0-4.929,2.168-4.929,5.42,0,3.231,1.984,5.42,4.929,5.42,2.925,0,4.909-2.168,4.909-5.42C86.615,9.817,84.652,7.649,81.727,7.649ZM22.416,0a2.209,2.209,0,1,0,2.209,2.209A2.2,2.2,0,0,0,22.416,0Z" transform="translate(277 30.696)" fill="#2c5ad7"/>
    <path id="Path_3733" data-name="Path 3733" d="M3.637-4.3a1.61,1.61,0,0,0,1.6-1.572,1.591,1.591,0,0,0-1.6-1.572A1.584,1.584,0,0,0,2.065-5.872,1.6,1.6,0,0,0,3.637-4.3ZM29.4-19.992,24.541-7.008,19.766-19.992H17.932l-4.8,12.985L8.266-19.992h-2.3l6,15.4h2.125l4.775-12.985L23.609-4.591h2.125l6-15.4Zm18.4,7.511c0-4.687-2.911-7.8-7.249-7.8-4.4,0-7.308,3.2-7.308,7.977,0,4.8,2.97,8.006,7.366,8.006a7.679,7.679,0,0,0,6.58-3.406l-1.6-.9a6.127,6.127,0,0,1-4.978,2.62c-3.057,0-4.862-2.184-5.124-5.532H47.774C47.8-11.753,47.8-12.219,47.8-12.481Zm-7.249-6.114c2.97,0,4.891,2.154,5.066,5.59H35.488C35.692-16.441,37.584-18.595,40.554-18.595ZM56.8-20.284a7.665,7.665,0,0,0-5.677,2.125l.961,1.281A5.52,5.52,0,0,1,56.3-18.595a4.273,4.273,0,0,1,4.6,4.571v1.077a19.828,19.828,0,0,0-4.484-.524c-3.785,0-6.289,1.892-6.289,4.687C50.132-6.076,52.17-4.3,55.2-4.3A6.2,6.2,0,0,0,60.9-7.823l.058,3.232H63v-9.695C63-17.9,60.555-20.284,56.8-20.284ZM55.78-5.872c-2.154,0-3.465-1.165-3.465-2.97,0-1.863,1.747-3.115,4.367-3.115a19.193,19.193,0,0,1,4.222.495A5.3,5.3,0,0,1,55.78-5.872ZM67.63-4.591h2.1V-27.3h-2.1ZM80.178-6.105A2.654,2.654,0,0,1,77.47-8.958v-9.287h5.561v-1.747H77.47v-4.513h-2.1v4.513H72.7v1.747h2.678v9.695A4,4,0,0,0,79.537-4.3a9.5,9.5,0,0,0,3.727-.641V-6.658A8.518,8.518,0,0,1,80.178-6.105ZM93.628-20.284c-2.649,0-4.542,1.048-5.532,2.853V-27.3H86V-4.591h2.1v-9.287c0-2.766,1.951-4.571,4.891-4.571,2.911,0,4.862,1.805,4.862,4.571v9.287h2.1v-9.695C99.946-17.9,97.413-20.284,93.628-20.284Z" transform="translate(369.603 56.996)" fill="#fff"/>
  </g>
</svg>
